<svg xmlns="http://www.w3.org/2000/svg" viewBox="0 0 1348 1086" fill="none" aria-hidden="true">
  <defs>
    <style>
      .franken-map__fill path { fill: url(#franken-fill); }
      .franken-map__outline path {
        fill: none;
        stroke: #9a050e;
        stroke-width: 1.8;
        stroke-opacity: 0.28;
        stroke-linejoin: round;
        stroke-linecap: round;
      }
      .franken-map__labels path { fill: #9a050e; fill-opacity: 0.12; }
      .franken-map__labels path[stroke] {
        fill: #9a050e;
        stroke: #9a050e;
        stroke-opacity: 0.18;
      }
      .franken-map__pin path {
        fill: none;
        stroke: #ffffff;
        stroke-opacity: 0.5;
        stroke-width: 2;
        stroke-linecap: round;
        stroke-linejoin: round;
      }
    </style>
    <linearGradient id="franken-fill" x1="674" y1="40" x2="674" y2="1046" gradientUnits="userSpaceOnUse">
      <stop offset="0%" stop-color="#9a050e" stop-opacity="0.11"/>
      <stop offset="52%" stop-color="#9a050e" stop-opacity="0.07"/>
      <stop offset="100%" stop-color="#9a050e" stop-opacity="0.02"/>
    </linearGradient>
    <clipPath id="franken-clip">
    <path d="M715.574 491L713.669 496.189L696.092 509.849L710.387 517.049L708.429 527.426L695.404 533.303L688.892 533.938L682.38 520.914L673.961 522.872L645.849 512.389L623.666 513.659L621.707 520.807L598.941 516.253L587.242 523.401L572.259 539.019L570.988 540.977L564.476 548.125L558.599 545.531L556.64 549.45L567.07 552.679L576.811 552.043L578.769 554.637L572.945 555.272L568.391 563.108L579.403 589.738L563.149 597.573L540.383 595.615L538.425 598.209L530.642 595.615L509.836 591.061L502.001 596.25L501.366 608.64L490.301 619.704L467.535 598.209H464.942L453.877 611.233L448 616.422L449.323 632.729L453.877 647.659L453.825 647.923H453.931L456.525 651.207L464.996 674.608L461.132 684.401L468.279 692.82L477.385 723.421L482.574 738.351L486.493 741.635L484.534 746.188L466.322 748.782L464.364 781.977L470.876 786.531L474.795 784.573L474.107 798.868L475.43 804.745L483.213 813.851L475.43 826.186L470.876 818.403L467.647 828.78L473.472 834.021L469.553 835.98L472.836 861.339L473.472 868.487L491.048 879.551L494.967 876.958L515.773 892.576L522.92 898.4L526.839 910.789L504.708 930.96L524.243 933.554L530.068 953.089L526.839 954.359L527.474 965.424L551.563 974.53L553.521 976.488L558.711 971.934L565.858 974.528L567.181 989.511L574.964 990.146L578.883 999.888L592.172 1005.6L592.543 1005.55L597.096 989.299L600.961 988.664L623.091 985.435L636.751 987.341L651.734 969.817H667.988L672.542 980.193L687.525 980.829L686.889 1002.96L695.307 1000.36L701.82 1007.51L707.009 1015.98L708.332 1016.62L712.251 1029.64L699.861 1041.34L710.926 1051.09L715.48 1049.18L718.073 1055L727.867 1042.03L741.527 1037.43L753.227 1027.05L761.01 1023.13L764.928 1034.2L767.522 1045.9L760.374 1053.1L764.928 1056.33L780.546 1057.59L776.628 1063.47L783.14 1069.35L798.758 1064.79L811.783 1077.13H813.054L822.847 1077.77L827.401 1066.75L851.438 1060.88L850.802 1049.18L862.502 1043.93L865.096 1023.82L872.296 1014.02L874.202 1013.39L889.82 1010.79H896.968L903.48 980.829L911.951 972.41L920.421 958.751L943.187 954.832L947.106 978.921L956.847 984.745L973.736 988.664L1006.3 966.533L1009.53 964.575L1008.26 947.051L997.19 937.257L989.354 928.786L984.8 915.126L971.141 913.168L969.87 904.115L972.464 896.914L965.951 874.149L947.104 868.324L944.51 855.935H964.628L956.845 838.358L960.764 833.169L956.21 818.186L952.292 814.957L919.097 812.999L924.338 803.257L911.949 799.339L912.584 795.474L936.673 781.762L947.102 783.085L949.696 788.962L969.867 795.422L993.268 779.168L993.903 770.062L988.714 760.956H997.185L1008.89 737.555L1023.86 725.801L1017.99 723.895L1019.32 719.341L1023.17 712.141L1025.82 718.654L1034.24 716.748L1042.07 720.612L1052.45 725.166L1059.6 725.801L1064.2 719.341L1063.53 712.141L1071.99 699.171L1077.86 677.676L1053.15 664.016L1057.69 658.191L1058.96 640.615L1042.71 635.426L1051.18 627.59L1056.38 630.873L1063.53 620.444L1069.41 618.486L1064.84 614.567L1060.29 604.826L1058.33 602.868L1058.96 601.597L1071.35 594.397L1075.22 597.68L1079.15 589.845L1071.99 587.251L1077.18 578.833L1066.11 580.103L1062.9 567.079L1068.07 564.485L1061.92 539.878L1060.59 536.222L1061.04 578.198L1042.82 574.279L1033.08 580.156L1029.8 577.508L1021.39 583.385L1008.35 588.574L1008.99 595.086L1007.72 597.68L993.376 585.98L986.864 563.215L983 564.538L973.206 568.402L963.464 586.614L958.911 585.979L954.357 589.897L952.398 597.045L950.44 595.722L947.211 604.88L940.699 602.922L908.827 614.622L891.885 615.257L888.021 614.622L880.821 615.257L876.957 615.892L873.673 608.109L867.849 608.745L863.93 600.326L864.566 591.856L856.147 584.708L845.083 592.491L840.529 588.572L844.394 584.708L850.906 583.385L851.541 575.602L856.783 573.644L850.271 565.808L854.189 558.025L852.866 556.702L845.083 563.85L832.694 562.579L837.248 556.067L819.671 557.39V552.148L803.417 545.636L799.499 537.218L815.805 535.26L802.78 529.383L797.591 519.006L803.416 511.171L800.187 503.388L796.268 497.511L802.145 492.322L778.056 501.428L771.544 509.21L750.049 522.87L739.672 505.294L730.566 500.74L715.574 491Z"/>
    <path d="M972.817 21L961.752 22.958L962.44 26.823L952.646 43.076L944.228 47.63L931.204 49.643L923.368 50.278L926.652 64.573L933.164 87.974L933.799 103.593L939.676 125.088L937.028 140.706L930.568 139.383V143.302L927.285 167.391L931.839 179.726L926.015 184.28L905.155 169.984L901.926 182.319L896.049 183.643L899.967 175.807L883.078 170.618L878.524 163.47V156.958L888.901 148.487L881.118 130.275L870.689 121.805L861.583 123.128L857.664 130.275L842.734 135.465L837.492 132.871L838.816 126.359L821.927 130.277L818.643 134.831L801.754 110.794L797.836 106.876L791.324 109.47L788.04 110.74L774.435 106.186L766.599 110.105L755.535 106.876L743.835 115.982L737.323 112.063L732.769 120.534L718.474 126.359L711.326 134.829L708.678 149.812L750.344 180.359H762.044L762.679 181.047L765.273 196.665L754.208 205.719L744.467 196.665L736.684 197.301L732.13 203.813L716.512 197.301L715.189 210.801L728.214 215.99L736.684 232.932L734.726 257.656L746.426 266.762L760.721 262.844L765.962 255.696L775.704 266.76L769.191 283.649L769.827 297.309L769.191 309.009H762.044L758.761 320.073L761.354 323.992L749.655 331.775L738.59 326.586L732.13 340.933L725.618 343.527L726.253 348.081L731.443 347.393V355.864L721.701 361.741L730.172 376.036L717.147 379.954L714.554 385.144L722.337 389.698L720.378 394.887L711.96 399.493L711.272 405.953L708.043 404.047L700.208 428.719L690.466 425.49L678.131 436.554L675.483 443.702L667.065 448.891V436.556L657.271 445.662L641.653 435.868L633.87 435.92L626.087 435.233L624.764 438.516L607.188 433.962L604.594 438.516L602 453.446L602.635 469.752L611.741 492.518H620.212L630.641 482.089L638.424 488.601L644.989 512.003L672.995 522.327L681.465 520.421L687.978 533.391L694.49 532.756L707.515 526.879L709.473 516.502L695.125 509.355L712.702 495.695L714.66 490.453L729.591 500.247L738.697 504.801L749.126 522.325L770.567 508.665L777.079 500.882L801.168 491.776L795.291 496.965L799.21 502.842L802.493 510.625L796.616 518.461L801.805 528.837L814.83 534.714L798.576 536.673L802.495 545.143L818.748 551.603V556.845L836.325 555.522L831.771 562.034L844.106 563.357L851.942 556.157L853.212 557.48L849.294 565.315L855.806 573.098L850.617 575.057L849.982 582.84L843.469 584.163L839.551 588.027L844.105 591.946L855.169 584.163L863.64 591.31L862.952 599.781L866.87 608.199L872.747 607.564L875.976 615.399L879.895 614.712L887.043 614.076L890.961 614.712L907.85 614.076L939.722 602.376L946.234 604.335L949.517 595.229L951.476 596.5L953.382 589.352L957.988 585.433L962.542 586.121L972.283 567.909L982.025 563.991L985.943 562.668L992.455 585.433L1006.75 597.187L1008.07 594.539L1007.38 588.08L1020.41 582.838L1028.88 577.013L1032.11 579.607L1041.9 573.73L1060.11 577.649L1059.34 532.124L1060.11 532.119L1074.41 518.459L1073.77 507.394L1089.39 502.205L1088.07 493.735L1089.39 476.158L1093.95 472.239L1116.02 474.833L1116.71 472.239V463.769L1125.18 465.092L1125.82 464.456L1125.13 459.267L1132.33 454.026L1130.37 453.39L1144.03 450.107L1152.5 452.755L1171.98 442.326L1179.13 444.92L1172.67 425.437L1178.5 419.56L1165.47 410.454L1171.35 408.496L1167.43 390.284L1166.16 388.961L1160.28 390.919L1163.57 386.365H1164.2L1159.65 373.34L1167.43 372.07V370.747H1171.98L1172.62 371.435H1173.94L1183.68 372.07L1183.74 370.112L1195.44 366.882L1196.71 361.005L1205.81 364.924L1223.39 360.37L1225.35 357.776L1251.34 354.493L1294.97 352.535L1306.67 346.022L1314.45 344.752L1316.41 323.257L1335.31 319.392H1335.94L1341.71 306.422L1341.77 306.37L1343.62 294.246L1329.96 284.452L1319.58 279.898L1316.3 270.792L1313.07 257.133L1320.85 240.244L1315.03 224.625L1297.45 205.726L1293.53 195.984L1283.79 197.943L1268.81 185.608L1287.71 170.625L1279.24 156.277L1281.83 150.453L1271.46 143.94L1268.17 137.428H1243.45L1241.49 130.28L1219.36 123.768L1223.28 115.985L1221.32 106.879L1222.64 99.732L1214.17 94.49L1209.62 97.773L1207.02 83.426L1196.59 78.236L1189.45 84.113L1180.98 85.384L1173.19 95.178L1162.13 99.042L1157.58 101.636L1156.3 97.772L1145.88 84.112L1128.3 86.705L1132.85 92.53H1121.79L1121.15 93.218L1113.37 98.407L1108.82 95.178L1105.53 99.042L1100.98 100.365L1093.2 101.001L1082.77 103.594L1076.26 105.553L1068.47 98.405L1056.08 97.77L1053.49 104.282L1040.46 111.43L1033.95 100.365L1022.25 101.001L1021.62 87.976L1017.06 77.599L1004.67 82.789L1002.77 74.318L994.299 71.724L992.975 67.17L993.611 44.404L1001.45 35.298L994.299 25.557L972.817 21Z"/>
    <path d="M467.832 0L459.361 3.91901L446.337 22.766L435.96 30.601L435.272 39.707L431.408 53.367L419.019 65.067L414.465 75.443L394.294 91.062L379.364 101.491L362.423 106.045L348.763 100.22L342.25 91.75L340.98 89.791L322.768 87.833L319.485 93.022V112.557L311.066 132.092L314.931 137.917L316.889 151.576L316.254 160.682L308.418 170.476H306.46L302.596 172.382L298.677 179.582L294.123 181.541L286.34 183.447L277.87 187.365L273.951 195.201L283.692 206.9L266.168 212.089L265.48 212.725L255.104 216.008L246.633 210.131L245.998 210.766L231.015 211.454L216.72 202.983L213.491 213.413L216.72 222.519L222.544 230.937L221.909 234.22L216.084 234.855L217.407 249.15L227.096 250.474L228.419 255.027L218.678 264.769L223.232 290.181L220.638 297.328L200.468 299.287H199.832L182.891 303.151L176.379 301.245L164.044 273.875L142.548 268.05L137.359 271.969L126.295 266.727L117.824 268.686L108.083 263.496L98.342 264.132L86.6419 268.686L89.2356 274.563L76.211 292.775L69.0635 297.328L71.0219 283.669L61.2281 275.833L41.1101 279.752L26.7625 282.981L24.1687 283.669L13.1043 292.775L11.1459 310.987L7.9169 311.622L6.59373 314.905L4 319.459L4.6353 328.565L20.2536 327.242L22.8473 338.306L26.7659 348.683L16.3892 360.437L20.9431 383.838L18.9847 387.121L24.8091 432.651L30.0508 440.434L23.5385 443.028L27.4029 446.946L24.1738 452.823L35.8736 461.929L44.3443 452.136V482.737L47.5733 488.561L53.4503 484.007L63.1916 485.966L63.8794 493.801L55.4087 498.99L52.1254 508.733L61.284 510.692L62.5546 512.015L69.7022 518.527L66.4731 525.675L65.15 528.904L63.1916 536.051L58.0024 536.739L60.5962 541.928V545.847L51.4901 547.805L44.3426 552.995V565.33L50.2195 570.571L49.5317 582.906L34.6013 597.254V607.631L49.5317 623.249L87.2789 626.532L99.614 623.249L102.262 621.978H106.126L110.045 614.143H113.963L119.152 588.148L125.665 585.5L132.812 575.123L135.406 575.759L149.066 582.271L158.86 574.436L165.372 583.594L175.113 581.636L180.302 573.165L177.073 569.882L171.196 564.693L175.115 560.139L180.939 552.991V542.562L175.75 533.456L166.644 526.996L165.374 543.885L154.945 544.52L149.703 534.779L162.092 528.902L152.986 526.308L141.286 526.944L130.222 521.119L141.286 519.161L138.003 503.541L156.215 500.947L163.415 497.664L168.604 502.27L175.752 497.664L186.816 491.204L192.006 500.946L198.518 502.904L206.353 491.84L216.73 492.475L219.324 506.824L238.859 519.159L242.088 515.93L238.169 497.664L275.281 489.881L275.916 506.136L270.727 512.649L272.633 515.932L271.998 532.821L268.079 536.739L265.485 545.845L280.468 554.951L286.345 551.668V537.373L300.641 530.861L307.153 556.22L317.529 541.29L336.429 528.265L335.741 534.777L346.171 541.925L352.048 558.179L352.683 559.502L346.171 569.243L348.129 572.526L363.747 595.292L366.341 603.71L353.317 627.799L348.127 634.312L344.844 636.27L341.615 639.499L361.15 645.376L367.662 625.206L378.674 620.652L382.593 623.245L377.404 635.635L386.51 640.824L388.468 650.565L387.78 668.777L383.916 679.206L389.741 685.031H402.13L409.277 684.395L407.954 686.354L426.854 685.031L444.378 662.954L437.918 659.036L435.325 656.442L444.431 646.701L453.325 647.336L453.432 646.965L448.878 632.035L447.607 615.729L453.432 610.539L464.496 597.515H467.144L489.91 619.01L500.922 607.946L501.61 595.556L509.393 590.367L530.253 594.921L538.035 597.515L539.994 594.921L562.76 596.88L579.013 589.044L567.949 562.414L572.503 554.579L578.38 553.943L576.421 551.35L566.627 551.985L556.251 548.756L558.209 544.837L564.034 547.431L570.546 540.283L571.869 538.325L586.852 522.707L598.552 515.559L621.318 520.113L623.276 512.965L645.352 511.642L638.893 488.241L631.057 481.729L620.681 492.158H612.21L603.104 469.392L602.416 453.086L605.064 438.156L607.658 433.602L625.235 438.156L626.505 434.872L634.288 435.56L642.123 435.508L657.742 445.302L667.483 436.195V448.531L675.954 443.341L678.547 436.194L690.937 425.129L700.678 428.358L708.461 403.687L711.744 405.592L712.379 399.133L720.85 394.526L722.809 389.337L714.973 384.783L717.567 379.594L730.591 375.676L722.121 361.38L731.915 355.504V347.033L726.673 347.721L726.038 343.167L732.55 340.573L739.062 326.225L750.127 331.414L761.826 323.632L759.233 319.713L762.462 308.649H769.662L770.297 296.949L769.662 283.289L776.121 266.4L766.38 255.336L761.191 262.483L746.843 266.402L735.144 257.296L737.102 232.572L728.631 215.63L715.766 210.495L715.713 210.76L716.984 221.189L713.12 226.378L689.031 216.001L687.072 214.678L667.537 212.084L663.673 201.02L668.227 197.791L659.756 184.766L663.675 177.619L661.081 154.165L662.987 145.059L653.881 144.424L644.139 140.505L643.504 130.129L635.669 125.575L627.886 135.316L618.78 130.127L620.738 124.885L605.755 115.779L601.837 102.119L596.648 106.673L578.436 106.038L575.152 100.213L582.352 87.189L569.328 83.27L567.369 76.758L560.222 65.694L557.628 51.399L551.116 44.251L541.375 44.886L510.138 21.485L501.667 5.867L491.238 7.82501L488.009 11.69L480.174 7.82501L475.62 13.65L467.832 0Z"/>
    </clipPath>
    <filter id="franken-region-shadow" x="0" y="0" width="1348" height="1086" filterUnits="userSpaceOnUse" color-interpolation-filters="sRGB">
      <feFlood flood-opacity="0" result="BackgroundImageFix"/>
      <feColorMatrix in="SourceAlpha" type="matrix" values="0 0 0 0 0 0 0 0 0 0 0 0 0 0 0 0 0 0 127 0" result="hardAlpha"/>
      <feOffset dy="4"/>
      <feGaussianBlur stdDeviation="2"/>
      <feComposite in2="hardAlpha" operator="out"/>
      <feColorMatrix type="matrix" values="0 0 0 0 0 0 0 0 0 0 0 0 0 0 0 0 0 0 0.25 0"/>
      <feBlend mode="normal" in2="BackgroundImageFix" result="effect1_dropShadow"/>
      <feBlend mode="normal" in="SourceGraphic" in2="effect1_dropShadow" result="shape"/>
    </filter>
  </defs>
  <g clip-path="url(#franken-clip)">
    <g class="franken-map__fill" filter="url(#franken-region-shadow)">
    <path d="M715.574 491L713.669 496.189L696.092 509.849L710.387 517.049L708.429 527.426L695.404 533.303L688.892 533.938L682.38 520.914L673.961 522.872L645.849 512.389L623.666 513.659L621.707 520.807L598.941 516.253L587.242 523.401L572.259 539.019L570.988 540.977L564.476 548.125L558.599 545.531L556.64 549.45L567.07 552.679L576.811 552.043L578.769 554.637L572.945 555.272L568.391 563.108L579.403 589.738L563.149 597.573L540.383 595.615L538.425 598.209L530.642 595.615L509.836 591.061L502.001 596.25L501.366 608.64L490.301 619.704L467.535 598.209H464.942L453.877 611.233L448 616.422L449.323 632.729L453.877 647.659L453.825 647.923H453.931L456.525 651.207L464.996 674.608L461.132 684.401L468.279 692.82L477.385 723.421L482.574 738.351L486.493 741.635L484.534 746.188L466.322 748.782L464.364 781.977L470.876 786.531L474.795 784.573L474.107 798.868L475.43 804.745L483.213 813.851L475.43 826.186L470.876 818.403L467.647 828.78L473.472 834.021L469.553 835.98L472.836 861.339L473.472 868.487L491.048 879.551L494.967 876.958L515.773 892.576L522.92 898.4L526.839 910.789L504.708 930.96L524.243 933.554L530.068 953.089L526.839 954.359L527.474 965.424L551.563 974.53L553.521 976.488L558.711 971.934L565.858 974.528L567.181 989.511L574.964 990.146L578.883 999.888L592.172 1005.6L592.543 1005.55L597.096 989.299L600.961 988.664L623.091 985.435L636.751 987.341L651.734 969.817H667.988L672.542 980.193L687.525 980.829L686.889 1002.96L695.307 1000.36L701.82 1007.51L707.009 1015.98L708.332 1016.62L712.251 1029.64L699.861 1041.34L710.926 1051.09L715.48 1049.18L718.073 1055L727.867 1042.03L741.527 1037.43L753.227 1027.05L761.01 1023.13L764.928 1034.2L767.522 1045.9L760.374 1053.1L764.928 1056.33L780.546 1057.59L776.628 1063.47L783.14 1069.35L798.758 1064.79L811.783 1077.13H813.054L822.847 1077.77L827.401 1066.75L851.438 1060.88L850.802 1049.18L862.502 1043.93L865.096 1023.82L872.296 1014.02L874.202 1013.39L889.82 1010.79H896.968L903.48 980.829L911.951 972.41L920.421 958.751L943.187 954.832L947.106 978.921L956.847 984.745L973.736 988.664L1006.3 966.533L1009.53 964.575L1008.26 947.051L997.19 937.257L989.354 928.786L984.8 915.126L971.141 913.168L969.87 904.115L972.464 896.914L965.951 874.149L947.104 868.324L944.51 855.935H964.628L956.845 838.358L960.764 833.169L956.21 818.186L952.292 814.957L919.097 812.999L924.338 803.257L911.949 799.339L912.584 795.474L936.673 781.762L947.102 783.085L949.696 788.962L969.867 795.422L993.268 779.168L993.903 770.062L988.714 760.956H997.185L1008.89 737.555L1023.86 725.801L1017.99 723.895L1019.32 719.341L1023.17 712.141L1025.82 718.654L1034.24 716.748L1042.07 720.612L1052.45 725.166L1059.6 725.801L1064.2 719.341L1063.53 712.141L1071.99 699.171L1077.86 677.676L1053.15 664.016L1057.69 658.191L1058.96 640.615L1042.71 635.426L1051.18 627.59L1056.38 630.873L1063.53 620.444L1069.41 618.486L1064.84 614.567L1060.29 604.826L1058.33 602.868L1058.96 601.597L1071.35 594.397L1075.22 597.68L1079.15 589.845L1071.99 587.251L1077.18 578.833L1066.11 580.103L1062.9 567.079L1068.07 564.485L1061.92 539.878L1060.59 536.222L1061.04 578.198L1042.82 574.279L1033.08 580.156L1029.8 577.508L1021.39 583.385L1008.35 588.574L1008.99 595.086L1007.72 597.68L993.376 585.98L986.864 563.215L983 564.538L973.206 568.402L963.464 586.614L958.911 585.979L954.357 589.897L952.398 597.045L950.44 595.722L947.211 604.88L940.699 602.922L908.827 614.622L891.885 615.257L888.021 614.622L880.821 615.257L876.957 615.892L873.673 608.109L867.849 608.745L863.93 600.326L864.566 591.856L856.147 584.708L845.083 592.491L840.529 588.572L844.394 584.708L850.906 583.385L851.541 575.602L856.783 573.644L850.271 565.808L854.189 558.025L852.866 556.702L845.083 563.85L832.694 562.579L837.248 556.067L819.671 557.39V552.148L803.417 545.636L799.499 537.218L815.805 535.26L802.78 529.383L797.591 519.006L803.416 511.171L800.187 503.388L796.268 497.511L802.145 492.322L778.056 501.428L771.544 509.21L750.049 522.87L739.672 505.294L730.566 500.74L715.574 491Z"/>
    <path d="M972.817 21L961.752 22.958L962.44 26.823L952.646 43.076L944.228 47.63L931.204 49.643L923.368 50.278L926.652 64.573L933.164 87.974L933.799 103.593L939.676 125.088L937.028 140.706L930.568 139.383V143.302L927.285 167.391L931.839 179.726L926.015 184.28L905.155 169.984L901.926 182.319L896.049 183.643L899.967 175.807L883.078 170.618L878.524 163.47V156.958L888.901 148.487L881.118 130.275L870.689 121.805L861.583 123.128L857.664 130.275L842.734 135.465L837.492 132.871L838.816 126.359L821.927 130.277L818.643 134.831L801.754 110.794L797.836 106.876L791.324 109.47L788.04 110.74L774.435 106.186L766.599 110.105L755.535 106.876L743.835 115.982L737.323 112.063L732.769 120.534L718.474 126.359L711.326 134.829L708.678 149.812L750.344 180.359H762.044L762.679 181.047L765.273 196.665L754.208 205.719L744.467 196.665L736.684 197.301L732.13 203.813L716.512 197.301L715.189 210.801L728.214 215.99L736.684 232.932L734.726 257.656L746.426 266.762L760.721 262.844L765.962 255.696L775.704 266.76L769.191 283.649L769.827 297.309L769.191 309.009H762.044L758.761 320.073L761.354 323.992L749.655 331.775L738.59 326.586L732.13 340.933L725.618 343.527L726.253 348.081L731.443 347.393V355.864L721.701 361.741L730.172 376.036L717.147 379.954L714.554 385.144L722.337 389.698L720.378 394.887L711.96 399.493L711.272 405.953L708.043 404.047L700.208 428.719L690.466 425.49L678.131 436.554L675.483 443.702L667.065 448.891V436.556L657.271 445.662L641.653 435.868L633.87 435.92L626.087 435.233L624.764 438.516L607.188 433.962L604.594 438.516L602 453.446L602.635 469.752L611.741 492.518H620.212L630.641 482.089L638.424 488.601L644.989 512.003L672.995 522.327L681.465 520.421L687.978 533.391L694.49 532.756L707.515 526.879L709.473 516.502L695.125 509.355L712.702 495.695L714.66 490.453L729.591 500.247L738.697 504.801L749.126 522.325L770.567 508.665L777.079 500.882L801.168 491.776L795.291 496.965L799.21 502.842L802.493 510.625L796.616 518.461L801.805 528.837L814.83 534.714L798.576 536.673L802.495 545.143L818.748 551.603V556.845L836.325 555.522L831.771 562.034L844.106 563.357L851.942 556.157L853.212 557.48L849.294 565.315L855.806 573.098L850.617 575.057L849.982 582.84L843.469 584.163L839.551 588.027L844.105 591.946L855.169 584.163L863.64 591.31L862.952 599.781L866.87 608.199L872.747 607.564L875.976 615.399L879.895 614.712L887.043 614.076L890.961 614.712L907.85 614.076L939.722 602.376L946.234 604.335L949.517 595.229L951.476 596.5L953.382 589.352L957.988 585.433L962.542 586.121L972.283 567.909L982.025 563.991L985.943 562.668L992.455 585.433L1006.75 597.187L1008.07 594.539L1007.38 588.08L1020.41 582.838L1028.88 577.013L1032.11 579.607L1041.9 573.73L1060.11 577.649L1059.34 532.124L1060.11 532.119L1074.41 518.459L1073.77 507.394L1089.39 502.205L1088.07 493.735L1089.39 476.158L1093.95 472.239L1116.02 474.833L1116.71 472.239V463.769L1125.18 465.092L1125.82 464.456L1125.13 459.267L1132.33 454.026L1130.37 453.39L1144.03 450.107L1152.5 452.755L1171.98 442.326L1179.13 444.92L1172.67 425.437L1178.5 419.56L1165.47 410.454L1171.35 408.496L1167.43 390.284L1166.16 388.961L1160.28 390.919L1163.57 386.365H1164.2L1159.65 373.34L1167.43 372.07V370.747H1171.98L1172.62 371.435H1173.94L1183.68 372.07L1183.74 370.112L1195.44 366.882L1196.71 361.005L1205.81 364.924L1223.39 360.37L1225.35 357.776L1251.34 354.493L1294.97 352.535L1306.67 346.022L1314.45 344.752L1316.41 323.257L1335.31 319.392H1335.94L1341.71 306.422L1341.77 306.37L1343.62 294.246L1329.96 284.452L1319.58 279.898L1316.3 270.792L1313.07 257.133L1320.85 240.244L1315.03 224.625L1297.45 205.726L1293.53 195.984L1283.79 197.943L1268.81 185.608L1287.71 170.625L1279.24 156.277L1281.83 150.453L1271.46 143.94L1268.17 137.428H1243.45L1241.49 130.28L1219.36 123.768L1223.28 115.985L1221.32 106.879L1222.64 99.732L1214.17 94.49L1209.62 97.773L1207.02 83.426L1196.59 78.236L1189.45 84.113L1180.98 85.384L1173.19 95.178L1162.13 99.042L1157.58 101.636L1156.3 97.772L1145.88 84.112L1128.3 86.705L1132.85 92.53H1121.79L1121.15 93.218L1113.37 98.407L1108.82 95.178L1105.53 99.042L1100.98 100.365L1093.2 101.001L1082.77 103.594L1076.26 105.553L1068.47 98.405L1056.08 97.77L1053.49 104.282L1040.46 111.43L1033.95 100.365L1022.25 101.001L1021.62 87.976L1017.06 77.599L1004.67 82.789L1002.77 74.318L994.299 71.724L992.975 67.17L993.611 44.404L1001.45 35.298L994.299 25.557L972.817 21Z"/>
    <path d="M467.832 0L459.361 3.91901L446.337 22.766L435.96 30.601L435.272 39.707L431.408 53.367L419.019 65.067L414.465 75.443L394.294 91.062L379.364 101.491L362.423 106.045L348.763 100.22L342.25 91.75L340.98 89.791L322.768 87.833L319.485 93.022V112.557L311.066 132.092L314.931 137.917L316.889 151.576L316.254 160.682L308.418 170.476H306.46L302.596 172.382L298.677 179.582L294.123 181.541L286.34 183.447L277.87 187.365L273.951 195.201L283.692 206.9L266.168 212.089L265.48 212.725L255.104 216.008L246.633 210.131L245.998 210.766L231.015 211.454L216.72 202.983L213.491 213.413L216.72 222.519L222.544 230.937L221.909 234.22L216.084 234.855L217.407 249.15L227.096 250.474L228.419 255.027L218.678 264.769L223.232 290.181L220.638 297.328L200.468 299.287H199.832L182.891 303.151L176.379 301.245L164.044 273.875L142.548 268.05L137.359 271.969L126.295 266.727L117.824 268.686L108.083 263.496L98.342 264.132L86.6419 268.686L89.2356 274.563L76.211 292.775L69.0635 297.328L71.0219 283.669L61.2281 275.833L41.1101 279.752L26.7625 282.981L24.1687 283.669L13.1043 292.775L11.1459 310.987L7.9169 311.622L6.59373 314.905L4 319.459L4.6353 328.565L20.2536 327.242L22.8473 338.306L26.7659 348.683L16.3892 360.437L20.9431 383.838L18.9847 387.121L24.8091 432.651L30.0508 440.434L23.5385 443.028L27.4029 446.946L24.1738 452.823L35.8736 461.929L44.3443 452.136V482.737L47.5733 488.561L53.4503 484.007L63.1916 485.966L63.8794 493.801L55.4087 498.99L52.1254 508.733L61.284 510.692L62.5546 512.015L69.7022 518.527L66.4731 525.675L65.15 528.904L63.1916 536.051L58.0024 536.739L60.5962 541.928V545.847L51.4901 547.805L44.3426 552.995V565.33L50.2195 570.571L49.5317 582.906L34.6013 597.254V607.631L49.5317 623.249L87.2789 626.532L99.614 623.249L102.262 621.978H106.126L110.045 614.143H113.963L119.152 588.148L125.665 585.5L132.812 575.123L135.406 575.759L149.066 582.271L158.86 574.436L165.372 583.594L175.113 581.636L180.302 573.165L177.073 569.882L171.196 564.693L175.115 560.139L180.939 552.991V542.562L175.75 533.456L166.644 526.996L165.374 543.885L154.945 544.52L149.703 534.779L162.092 528.902L152.986 526.308L141.286 526.944L130.222 521.119L141.286 519.161L138.003 503.541L156.215 500.947L163.415 497.664L168.604 502.27L175.752 497.664L186.816 491.204L192.006 500.946L198.518 502.904L206.353 491.84L216.73 492.475L219.324 506.824L238.859 519.159L242.088 515.93L238.169 497.664L275.281 489.881L275.916 506.136L270.727 512.649L272.633 515.932L271.998 532.821L268.079 536.739L265.485 545.845L280.468 554.951L286.345 551.668V537.373L300.641 530.861L307.153 556.22L317.529 541.29L336.429 528.265L335.741 534.777L346.171 541.925L352.048 558.179L352.683 559.502L346.171 569.243L348.129 572.526L363.747 595.292L366.341 603.71L353.317 627.799L348.127 634.312L344.844 636.27L341.615 639.499L361.15 645.376L367.662 625.206L378.674 620.652L382.593 623.245L377.404 635.635L386.51 640.824L388.468 650.565L387.78 668.777L383.916 679.206L389.741 685.031H402.13L409.277 684.395L407.954 686.354L426.854 685.031L444.378 662.954L437.918 659.036L435.325 656.442L444.431 646.701L453.325 647.336L453.432 646.965L448.878 632.035L447.607 615.729L453.432 610.539L464.496 597.515H467.144L489.91 619.01L500.922 607.946L501.61 595.556L509.393 590.367L530.253 594.921L538.035 597.515L539.994 594.921L562.76 596.88L579.013 589.044L567.949 562.414L572.503 554.579L578.38 553.943L576.421 551.35L566.627 551.985L556.251 548.756L558.209 544.837L564.034 547.431L570.546 540.283L571.869 538.325L586.852 522.707L598.552 515.559L621.318 520.113L623.276 512.965L645.352 511.642L638.893 488.241L631.057 481.729L620.681 492.158H612.21L603.104 469.392L602.416 453.086L605.064 438.156L607.658 433.602L625.235 438.156L626.505 434.872L634.288 435.56L642.123 435.508L657.742 445.302L667.483 436.195V448.531L675.954 443.341L678.547 436.194L690.937 425.129L700.678 428.358L708.461 403.687L711.744 405.592L712.379 399.133L720.85 394.526L722.809 389.337L714.973 384.783L717.567 379.594L730.591 375.676L722.121 361.38L731.915 355.504V347.033L726.673 347.721L726.038 343.167L732.55 340.573L739.062 326.225L750.127 331.414L761.826 323.632L759.233 319.713L762.462 308.649H769.662L770.297 296.949L769.662 283.289L776.121 266.4L766.38 255.336L761.191 262.483L746.843 266.402L735.144 257.296L737.102 232.572L728.631 215.63L715.766 210.495L715.713 210.76L716.984 221.189L713.12 226.378L689.031 216.001L687.072 214.678L667.537 212.084L663.673 201.02L668.227 197.791L659.756 184.766L663.675 177.619L661.081 154.165L662.987 145.059L653.881 144.424L644.139 140.505L643.504 130.129L635.669 125.575L627.886 135.316L618.78 130.127L620.738 124.885L605.755 115.779L601.837 102.119L596.648 106.673L578.436 106.038L575.152 100.213L582.352 87.189L569.328 83.27L567.369 76.758L560.222 65.694L557.628 51.399L551.116 44.251L541.375 44.886L510.138 21.485L501.667 5.867L491.238 7.82501L488.009 11.69L480.174 7.82501L475.62 13.65L467.832 0Z"/>
    </g>
    <g class="franken-map__labels">
      <path d="M537.502 827.733L543.811 826.256C544.149 826.226 544.487 826.196 544.825 826.166C545.158 826.113 545.495 826.132 545.837 826.225C546.203 826.312 547.399 827.683 549.426 830.339C551.476 832.989 553.056 834.998 554.165 836.365C555.297 837.727 556.291 838.603 557.147 838.995L560.045 825.634C559.498 825.195 559.115 824.927 558.895 824.831C558.699 824.729 558.276 824.606 557.626 824.463L557.396 823.481L568.087 820.978L568.317 821.959C567.754 822.609 567.338 823.15 567.07 823.582C566.825 824.009 566.771 824.515 566.908 825.099L571.586 845.079C571.75 845.78 572.119 846.408 572.693 846.964C573.285 847.491 574.075 847.762 575.065 847.777L575.119 848.799L564.962 851.214L564.724 850.198C565.568 849.483 566.119 848.787 566.38 848.109C566.635 847.409 566.647 846.568 566.418 845.586L562.363 828.271L561.732 828.419L557.842 847.964L557.211 848.112L544.381 832.481L543.75 832.629L548.125 851.312C548.193 852.233 548.276 853.483 548.375 855.062C548.502 856.659 548.458 858.419 548.243 860.343C548.028 862.266 547.5 863.696 546.66 864.633L546.422 863.616C546.762 861.491 546.851 859.239 546.689 856.861C546.526 854.484 546.196 852.232 545.698 850.105L542.111 834.788C541.493 832.147 540.801 830.559 540.035 830.024C539.584 829.784 539.217 829.587 538.934 829.431C538.646 829.252 538.391 829.004 538.168 828.686C537.964 828.339 537.742 828.022 537.502 827.733ZM577.761 846.258L581.935 845.133L582.537 844.548C582.567 844.467 582.59 844.351 582.603 844.2C582.617 844.048 582.583 843.798 582.501 843.447L577.872 823.678C577.396 821.645 576.205 820.716 574.299 820.891C572.41 821.038 571.188 821.028 570.631 820.863L570.246 819.215L571.227 818.985C571.279 818.998 571.671 819.091 572.402 819.265C573.133 819.439 573.919 819.427 574.76 819.23L586.292 816.53L586.596 817.827C585.03 818.193 583.906 818.604 583.224 819.06C582.537 819.492 582.308 820.199 582.537 821.18L586.715 839.022C587.503 842.387 588.708 843.953 590.33 843.721C591.975 843.484 592.998 843.38 593.4 843.409C593.795 843.415 594.226 843.413 594.692 843.402C594.924 843.447 595.106 843.749 595.237 844.31C595.314 844.637 595.219 844.968 594.952 845.301C594.714 845.653 594.466 845.859 594.209 845.919C593.765 846.023 593.333 845.915 592.913 845.594C592.493 845.273 592.13 844.988 591.825 844.739L578.015 847.973L577.761 846.258ZM619.313 832.276C619.482 833 618.684 834.432 616.917 836.571C615.174 838.705 612.888 840.103 610.061 840.765C608.845 841.05 607.08 840.982 604.763 840.564C602.47 840.139 600.281 839.161 598.197 837.627C596.107 836.071 594.714 833.809 594.019 830.841C593.489 828.574 593.569 826.288 594.262 823.981C594.949 821.651 595.591 819.553 596.19 817.688C594.881 817.994 593.802 818.543 592.952 819.333C592.119 820.095 591.302 820.866 590.498 821.646C590.425 819.543 591.144 817.772 592.656 816.334C594.186 814.866 595.64 813.971 597.019 813.648L613.353 809.824C613.218 811.038 613.095 812.25 612.984 813.459C612.722 814.655 612.123 815.362 611.188 815.581L598.499 816.814C598.341 817.295 598.201 818.277 598.08 819.759C597.982 821.237 598.393 823.938 599.312 827.864C600.051 831.019 601.424 833.569 603.433 835.514C605.464 837.454 607.882 838.095 610.687 837.439C612.252 837.072 613.7 836.253 615.028 834.98C616.375 833.679 617.61 832.478 618.732 831.377C618.853 831.472 618.968 831.593 619.076 831.74C619.179 831.864 619.258 832.042 619.313 832.276ZM644.814 826.305C644.984 827.029 644.185 828.461 642.419 830.6C640.675 832.734 638.39 834.132 635.562 834.794C634.347 835.078 632.581 835.011 630.265 834.592C627.971 834.168 625.783 833.189 623.698 831.656C621.608 830.099 620.216 827.837 619.521 824.87C618.99 822.603 619.071 820.316 619.763 818.01C620.45 815.68 621.093 813.582 621.691 811.716C620.383 812.023 619.303 812.571 618.453 813.362C617.621 814.124 616.803 814.894 616 815.674C615.926 813.572 616.646 811.801 618.157 810.362C619.687 808.895 621.141 808 622.52 807.677L638.854 803.852C638.72 805.067 638.597 806.279 638.486 807.488C638.223 808.683 637.625 809.39 636.69 809.609L624.001 810.843C623.842 811.324 623.703 812.305 623.581 813.788C623.484 815.265 623.894 817.967 624.814 821.892C625.552 825.047 626.926 827.597 628.934 829.542C630.966 831.482 633.384 832.124 636.188 831.467C637.754 831.101 639.201 830.281 640.53 829.009C641.877 827.707 643.111 826.506 644.234 825.405C644.355 825.5 644.469 825.621 644.578 825.768C644.681 825.892 644.76 826.071 644.814 826.305ZM668.713 811.909C668.193 812.844 667.681 813.765 667.178 814.671C666.564 815.628 665.778 816.219 664.82 816.444L652.692 817.546L651.43 817.841L651.964 820.12C653.321 822.439 654.802 824.188 656.409 825.364C658.039 826.536 660.01 826.85 662.324 826.309C663.539 826.024 664.801 825.149 666.109 823.684C667.412 822.196 667.787 820.272 667.235 817.912L672.493 816.681L672.722 817.662C671.708 821.227 670.331 823.817 668.589 825.433C666.848 827.049 664.727 828.149 662.226 828.735C658.651 829.572 655.105 829.009 651.59 827.047C648.091 825.057 645.869 822.04 644.923 817.997C644.463 816.034 644.468 814.11 644.939 812.225C645.433 810.335 646.264 808.514 647.431 806.761C648.621 805.004 649.986 803.513 651.523 802.29C653.056 801.044 654.383 800.29 655.504 800.027C657.257 799.617 659.042 799.556 660.86 799.845C662.583 800.255 664.303 800.654 666.02 801.04C666.239 800.817 666.493 800.585 666.782 800.344C667.088 800.075 667.515 799.791 668.06 799.49L668.372 800.822C668.063 801.289 667.291 802.259 666.058 803.73C664.82 805.179 664.03 806.067 663.687 806.393C662.145 804.437 660.783 803.253 659.601 802.839C658.414 802.402 657.33 802.299 656.349 802.529C656.05 802.623 655.855 802.681 655.761 802.703C653.401 803.256 651.959 804.308 651.435 805.861C650.934 807.408 650.501 809.555 650.134 812.303L650.667 814.581L654.451 813.215L660.134 811.588L664.728 810.365L667.079 809.666L670.551 808.705C670.24 809.271 669.899 809.869 669.529 810.498C669.182 811.121 668.91 811.591 668.713 811.909ZM687.24 821.805L684.403 822.322L681.912 823.053L680.015 823.793C679.925 823.937 679.877 824.047 679.87 824.123C679.869 824.222 679.821 824.282 679.728 824.304C679.517 824.353 679.293 824.393 679.054 824.425C678.843 824.474 678.61 824.529 678.352 824.589L677.967 824.679C677.546 824.778 677.238 824.776 677.041 824.674C676.874 824.59 676.768 824.455 676.724 824.268C676.697 824.151 676.69 824.066 676.702 824.014C676.714 823.962 676.73 823.921 676.747 823.892C676.649 823.472 676.859 822.634 677.379 821.378C677.898 820.123 677.986 818.759 677.641 817.287L675.211 806.911C674.894 805.556 674.438 804.554 673.842 803.905C673.227 803.383 672.623 802.859 672.032 802.332C671.96 802.028 672.795 801.118 674.535 799.601C676.275 798.084 678.172 796.605 680.225 795.163C682.296 793.692 683.776 792.853 684.664 792.645C687.047 792.087 688.787 792.517 689.884 793.937C690.975 795.333 691.843 796.46 692.488 797.32C691.996 797.854 691.371 798.395 690.612 798.942C689.871 799.461 689.044 800.037 688.133 800.669C687.009 799.133 685.987 797.979 685.067 797.209C684.165 796.41 683.13 796.147 681.961 796.42C680.442 796.776 679.546 797.528 679.273 798.677C679.017 799.796 679.128 801.373 679.604 803.406C679.746 804.013 680.019 805.022 680.423 806.431C680.827 807.84 681.125 808.953 681.316 809.771C681.787 811.781 682.034 813.571 682.057 815.144C682.08 816.716 681.745 818.236 681.054 819.704C681.919 819.502 682.634 819.187 683.199 818.758C683.764 818.33 684.269 818.015 684.715 817.812C685.155 817.586 685.615 817.392 686.095 817.23C686.569 817.045 686.981 816.911 687.332 816.829C688.594 816.534 689.587 816.461 690.313 816.612C691.056 816.734 691.674 816.897 692.165 817.102C692.885 816.49 693.635 815.797 694.415 815.023C695.195 814.249 695.853 813.429 696.39 812.564L697.371 812.334L697.609 813.35C697.987 814.963 697.631 816.599 696.54 818.259C695.468 819.891 693.764 820.98 691.427 821.527C690.142 821.828 689.342 821.991 689.027 822.015C688.712 822.04 688.117 821.97 687.24 821.805ZM718.192 792.41C717.919 792.721 717.447 793.176 716.774 793.777C716.101 794.379 714.993 795.328 713.448 796.627C712.518 795.39 711.568 794.442 710.6 793.781C709.655 793.115 708.576 792.924 707.36 793.209C706.426 793.428 705.787 793.91 705.444 794.656C705.101 795.402 704.832 796.414 704.639 797.691L705.632 801.933L716.428 799.405C716.352 799.817 716.281 800.252 716.216 800.711C716.151 801.17 716.233 801.89 716.463 802.872C716.37 802.894 715.46 803.168 713.735 803.696C712.005 804.199 710.742 804.544 709.947 804.73C708.989 804.955 708.297 805.104 707.871 805.18C707.463 805.226 706.974 805.242 706.403 805.227C707.071 808.078 707.547 810.691 707.832 813.064C708.134 815.409 708.007 817.916 707.449 820.586C706.896 823.279 705.59 825.544 703.531 827.382L703.367 826.681C703.569 824.07 703.717 821.915 703.813 820.217C703.908 818.518 703.843 817.19 703.619 816.232L701.395 806.733L697.784 807.578C697.713 807.275 697.635 806.886 697.549 806.414C697.463 805.941 697.398 805.611 697.354 805.424L697.255 805.003C697.228 804.886 697.147 804.647 697.013 804.284L700.623 803.438L700.328 802.176C700.06 801.771 699.686 801.119 699.204 800.221C698.741 799.294 698.251 798.411 697.733 797.571L709.327 787.239C710.962 787.694 712.35 788.306 713.491 789.074C714.65 789.813 716.217 790.925 718.192 792.41ZM736.506 787.974C736.167 786.525 735.373 785.503 734.125 784.908C732.899 784.308 731.738 784.136 730.639 784.393C729.331 784.7 728.227 785.513 727.328 786.832C726.447 788.123 726.105 789.189 726.302 790.03L728.584 799.775C730.929 797.895 732.93 795.861 734.587 793.673C736.239 791.463 736.878 789.563 736.506 787.974ZM750.662 800.743C750.739 800.651 750.858 800.475 751.019 800.215C751.181 799.956 751.414 799.741 751.719 799.571C752.024 799.401 752.2 799.31 752.247 799.299C752.411 799.261 752.605 799.302 752.83 799.422C753.05 799.518 753.198 799.73 753.275 800.057C753.34 800.337 753.331 800.611 753.245 800.877C753.177 801.115 753.03 801.273 752.801 801.351L751.181 805.169C750.286 806.611 749.686 807.466 749.379 807.735C749.078 808.028 748.389 808.3 747.315 808.552C745.655 808.94 743.874 808.384 741.969 806.882C740.349 805.438 738.726 803.981 737.101 802.513C735.168 800.994 733.36 800.431 731.677 800.825C730.392 801.126 729.603 801.545 729.309 802.082C729.034 802.59 729.006 803.312 729.225 804.247C729.274 804.457 729.326 804.679 729.381 804.913C729.435 805.146 729.502 805.377 729.58 805.605C730.001 807.405 730.733 808.848 731.777 809.935C732.814 810.998 733.39 811.615 733.504 811.785L724.075 813.993C724.096 813.767 724.318 813.135 724.741 812.1C725.158 811.041 725.315 810.289 725.211 809.845L721.419 793.651C721.189 792.67 720.856 791.984 720.42 791.593C719.983 791.202 719.255 790.83 718.236 790.477L717.998 789.461C719.302 789.032 720.691 788.276 722.162 787.192C723.652 786.079 725.088 785.003 726.472 783.964C728.177 782.825 729.836 782.067 731.448 781.689C733.832 781.131 736.077 781.246 738.184 782.035C740.315 782.818 741.624 784.249 742.111 786.329C742.62 788.502 742.073 790.429 740.47 792.111C738.867 793.793 737.59 795.127 736.638 796.114C738.373 796.891 739.961 797.887 741.404 799.102C742.847 800.317 744.167 801.425 745.363 802.427C746.468 803.253 747.441 803.567 748.283 803.37C748.844 802.82 749.279 802.361 749.587 801.993C749.919 801.619 750.277 801.203 750.662 800.743ZM770.038 786.075L768.88 781.133C768.532 780.696 768.322 780.327 768.251 780.023C768.214 779.76 768.176 779.547 768.138 779.384C768.105 779.243 768.026 779.065 767.902 778.847C767.8 778.625 767.658 778.387 767.476 778.134L766.076 776.576L757.348 778.62C757.521 779.886 757.721 781.318 757.947 782.916C758.168 784.491 758.21 785.566 758.073 786.14L758.681 788.734L770.038 786.075ZM751.014 778.254L752.803 777.687L756.309 776.866L774.115 772.697L774.345 773.678C774.219 773.88 774.085 774.096 773.942 774.327C773.817 774.529 773.676 774.821 773.519 775.203C773.356 775.561 773.248 775.993 773.194 776.499C773.134 776.981 773.186 777.573 773.35 778.274L776.535 791.874C777.279 795.052 778.035 797.229 778.804 798.405C779.739 799.345 780.452 800.077 780.945 800.603L766.679 803.943L766.457 802.997C766.528 802.98 766.776 802.935 767.202 802.859C767.628 802.784 768.004 802.708 768.332 802.632C770.365 802.156 771.731 801.515 772.43 800.711C773.152 799.901 773.393 798.982 773.152 797.954L771.354 790.277L758.701 793.24C758.87 794.384 759.063 795.892 759.279 797.764C759.514 799.607 759.542 801.572 759.366 803.659C759.189 805.746 758.575 806.913 757.523 807.159C757.079 807.263 756.708 807.202 756.408 806.977C756.132 806.746 755.956 806.466 755.879 806.139C755.83 805.929 756.109 805.173 756.717 803.873C757.319 802.549 757.611 801.272 757.595 800.044C757.602 798.81 757.516 797.338 757.338 795.63C757.154 793.898 756.835 791.064 756.382 787.128C755.923 783.168 755.717 781.023 755.762 780.692L755.294 778.694L750.457 779.826L750.228 778.845C750.414 778.801 750.57 778.728 750.694 778.625C750.817 778.522 750.924 778.398 751.014 778.254ZM804.783 766.551C804.314 766.759 803.868 767.012 803.444 767.308L802.699 768.074L808.97 794.854L806.972 795.322C806.503 793.952 805.082 792.461 802.708 790.848C800.351 789.206 798.118 787.671 796.009 786.242C790.893 782.288 787.782 779.899 786.677 779.073C785.566 778.224 784.473 777.715 783.399 777.548L787.626 795.6C788.315 798.544 788.558 801.001 788.354 802.972C787.92 805.119 787.611 806.905 787.426 808.328L786.41 808.566L786.18 807.585C786.285 807.191 786.353 805.745 786.385 803.248C786.416 800.751 786.295 798.918 786.022 797.75L782.648 783.344C782.046 780.773 781.525 778.862 781.084 777.609C780.637 776.334 780.205 775.436 779.788 774.918C779.394 774.394 778.858 774.051 778.179 773.89C777.5 773.728 777.046 773.576 776.815 773.433C777.485 773.029 778.327 772.573 779.342 772.065C780.351 771.532 781.483 770.947 782.739 770.308L803.444 784.834L804.192 785.028L800.983 771.323C800.517 769.337 799.764 768.33 798.722 768.303C798.186 768.33 797.648 768.345 797.106 768.348L796.868 767.332L804.545 765.534L804.783 766.551ZM814.937 767.02L816.66 774.381C818.287 773.014 819.65 771.253 820.747 769.098C821.863 766.914 822.38 765.647 822.298 765.297C822.248 765.086 822.182 764.855 822.098 764.604C822.038 764.347 821.911 764.118 821.716 763.917C821.539 763.687 821.34 763.524 821.12 763.428C820.919 763.302 820.647 763.194 820.305 763.101C819.986 763.003 819.742 762.962 819.573 762.977C819.398 762.968 819.081 762.981 818.62 763.015C818.183 763.043 817.825 763.09 817.544 763.156C817.334 763.205 817.029 763.326 816.631 763.518C816.25 763.681 815.974 763.819 815.804 763.933C815.633 764.047 815.438 764.265 815.218 764.588C814.997 764.911 814.861 765.276 814.808 765.682C814.779 766.084 814.822 766.53 814.937 767.02ZM830.662 788.702L830.86 788.286C831.208 787.243 831.42 786.516 831.496 786.103C831.566 785.668 831.514 785.076 831.339 784.328C830.978 782.786 829.302 780.788 826.311 778.333C823.316 775.855 820.871 774.837 818.978 775.28C818.677 775.573 818.335 775.899 817.951 776.26C817.59 776.616 817.267 777.024 816.981 777.486L819.172 786.845L821.206 790.953L813.495 792.759L813.257 791.742C813.807 791.145 814.153 790.621 814.293 790.169C814.429 789.693 814.463 789.315 814.398 789.035L809.465 767.969C809.29 767.221 808.916 766.68 808.345 766.345C807.792 765.982 807.4 765.729 807.169 765.585C806.938 765.442 806.727 765.331 806.536 765.253L806.48 764.379L831.437 758.535L831.634 759.376C831.321 759.622 831.03 759.85 830.759 760.062C830.488 760.273 829.978 760.725 829.228 761.418C828.502 762.106 827.525 763.198 826.297 764.693C825.07 766.188 823.776 768.032 822.416 770.223C825.738 771.886 828.291 773.469 830.073 774.975C831.878 776.475 833.194 777.83 834.02 779.042C834.841 780.23 836.23 782.481 838.189 785.793L838.794 786.798L830.662 788.702ZM861.395 766.79C860.875 767.725 860.363 768.646 859.861 769.552C859.247 770.51 858.461 771.1 857.503 771.325L845.375 772.427L844.113 772.722L844.646 775.001C846.003 777.321 847.485 779.069 849.091 780.246C850.721 781.417 852.693 781.731 855.006 781.19C856.221 780.905 857.483 780.031 858.792 778.566C860.095 777.077 860.47 775.153 859.917 772.793L865.175 771.562L865.405 772.543C864.391 776.108 863.013 778.699 861.272 780.314C859.53 781.93 857.409 783.03 854.909 783.616C851.334 784.453 847.788 783.891 844.272 781.929C840.774 779.938 838.552 776.921 837.605 772.878C837.145 770.915 837.151 768.991 837.621 767.106C838.116 765.216 838.946 763.395 840.113 761.642C841.304 759.885 842.668 758.394 844.206 757.172C845.738 755.925 847.065 755.171 848.187 754.908C849.939 754.498 851.724 754.437 853.542 754.727C855.265 755.137 856.985 755.535 858.703 755.922C858.921 755.698 859.175 755.466 859.464 755.226C859.771 754.957 860.197 754.672 860.743 754.372L861.055 755.703C860.745 756.17 859.974 757.14 858.741 758.612C857.503 760.06 856.712 760.948 856.37 761.274C854.827 759.319 853.465 758.134 852.284 757.72C851.097 757.283 850.013 757.18 849.031 757.41C848.733 757.504 848.537 757.562 848.444 757.584C846.083 758.137 844.641 759.189 844.117 760.742C843.617 762.289 843.183 764.436 842.816 767.184L843.35 769.463L847.134 768.096L852.816 766.469L857.41 765.246L859.761 764.547L863.233 763.586C862.922 764.152 862.582 764.75 862.211 765.379C861.864 766.002 861.592 766.473 861.395 766.79ZM890.872 746.392C890.403 746.601 889.957 746.853 889.533 747.149L888.788 747.915L895.059 774.695L893.061 775.163C892.593 773.794 891.171 772.302 888.797 770.689C886.44 769.047 884.207 767.512 882.098 766.083C876.982 762.129 873.871 759.74 872.766 758.914C871.655 758.065 870.562 757.557 869.488 757.389L873.715 775.441C874.404 778.385 874.647 780.843 874.443 782.813C874.009 784.961 873.7 786.746 873.516 788.17L872.499 788.408L872.269 787.426C872.374 787.032 872.442 785.586 872.474 783.089C872.506 780.592 872.385 778.76 872.111 777.591L868.738 763.185C868.136 760.614 867.614 758.703 867.173 757.451C866.726 756.175 866.294 755.278 865.877 754.759C865.483 754.235 864.947 753.892 864.268 753.731C863.59 753.569 863.135 753.417 862.904 753.274C863.574 752.871 864.416 752.415 865.431 751.906C866.44 751.374 867.572 750.788 868.828 750.149L889.533 764.675L890.281 764.869L887.072 751.164C886.607 749.178 885.853 748.171 884.812 748.144C884.276 748.171 883.737 748.186 883.195 748.19L882.957 747.173L890.634 745.376L890.872 746.392Z" fill="white"/>
      <path d="M845.426 280.545C844.675 282.774 843.113 284.59 840.741 285.994C838.391 287.405 835.933 288.388 833.365 288.941C830.798 289.494 829.094 289.629 828.253 289.345C827.32 289.031 826.003 287.98 824.301 286.19C822.599 284.401 821.26 282.139 820.282 279.404C819.304 276.668 819.333 273.765 820.368 270.695C821.326 267.852 823.77 265.333 827.701 263.137C831.655 260.949 835.11 260.353 838.066 261.35C840.659 262.223 842.864 264.663 844.68 268.668C846.503 272.651 846.752 276.61 845.426 280.545ZM841.062 281.657C841.875 279.247 841.539 276.221 840.056 272.581C838.603 268.926 836.364 266.588 833.34 265.569C831.566 264.971 829.866 264.943 828.24 265.484C826.644 266.01 825.509 267.274 824.835 269.275C823.93 271.959 824.239 274.988 825.761 278.363C827.306 281.745 829.716 283.988 832.991 285.092C834.765 285.69 836.439 285.608 838.012 284.846C839.586 284.085 840.603 283.022 841.062 281.657ZM870.246 293.581C870.001 294.309 869.11 295.262 867.573 296.441C866.067 297.605 864.238 298.483 862.089 299.076C859.962 299.676 857.841 299.62 855.725 298.907C854.385 298.075 852.972 297.27 851.487 296.491C850.025 295.72 848.827 295.177 847.895 294.863C846.849 294.51 845.916 294.348 845.096 294.375C844.192 294.501 843.505 294.587 843.035 294.631L843.356 293.675C843.676 293.327 844.331 292.737 845.32 291.906C846.332 291.082 846.988 290.226 847.287 289.339L851.333 277.331C851.732 276.148 851.872 275.094 851.754 274.167C851.658 273.249 851.217 272.416 850.43 271.67L850.74 270.749C853.957 271.048 856.807 271.046 859.29 270.743C861.795 270.447 863.946 270.602 865.743 271.208C867.654 271.852 869.274 272.98 870.605 274.593C871.965 276.192 872.351 277.866 871.761 279.618C871.385 280.732 870.601 281.519 869.408 281.978C868.215 282.437 867.056 282.87 865.931 283.276C867.178 285.139 868.435 287.007 869.704 288.878C870.602 290.421 870.783 291.989 870.246 293.581ZM863.768 293.867C864.289 292.321 864.047 290.745 863.043 289.141C862.039 287.536 860.962 286.071 859.813 284.747C859.199 284.54 858.018 284.699 856.271 285.225C854.547 285.758 853.631 286.184 853.523 286.502C852.795 288.663 852.614 290.742 852.979 292.739C853.375 294.721 854.642 296.073 856.78 296.793C857.735 297.115 859.018 297.066 860.628 296.646C862.246 296.204 863.293 295.277 863.768 293.867ZM856.616 277.325L854.696 283.023C854.946 283.031 855.117 283.051 855.208 283.081C855.307 283.089 855.363 283.146 855.378 283.253C856.001 282.981 857.938 282.494 861.189 281.792C864.462 281.096 866.406 279.839 867.019 278.02C867.394 276.905 867.314 275.865 866.778 274.9C866.273 273.919 865.509 273.256 864.485 272.911C862.939 272.39 861.398 272.453 859.863 273.101C858.328 273.749 857.319 274.789 856.836 276.222C856.782 276.381 856.732 276.529 856.686 276.665C856.671 276.787 856.647 277.007 856.616 277.325ZM896.498 296.729C895.563 297.25 894.643 297.763 893.738 298.268C892.712 298.758 891.732 298.846 890.8 298.532L879.912 293.077L878.684 292.663L877.936 294.881C877.867 297.567 878.205 299.834 878.95 301.681C879.718 303.535 881.228 304.842 883.48 305.6C884.662 305.999 886.196 305.92 888.08 305.365C889.971 304.787 891.304 303.349 892.078 301.052L897.195 302.776L896.874 303.732C894.133 306.227 891.597 307.703 889.266 308.158C886.934 308.613 884.552 308.431 882.118 307.611C878.638 306.438 875.922 304.092 873.967 300.571C872.044 297.036 871.745 293.301 873.071 289.366C873.714 287.456 874.733 285.824 876.126 284.47C877.542 283.123 879.208 282.013 881.123 281.139C883.062 280.273 885.006 279.725 886.958 279.496C888.916 279.245 890.442 279.303 891.533 279.67C893.239 280.245 894.788 281.135 896.181 282.338C897.429 283.595 898.681 284.84 899.937 286.073C900.241 285.998 900.579 285.935 900.951 285.883C901.353 285.816 901.865 285.799 902.488 285.831L902.051 287.127C901.542 287.361 900.375 287.778 898.552 288.38C896.736 288.958 895.596 289.296 895.133 289.393C894.853 286.918 894.32 285.193 893.534 284.219C892.755 283.223 891.888 282.563 890.933 282.241C890.63 282.164 890.433 282.111 890.342 282.08C888.044 281.306 886.264 281.441 885.001 282.484C883.76 283.535 882.26 285.131 880.5 287.273L879.753 289.491L883.689 290.323L889.376 291.936L893.925 293.317L896.291 293.962L899.748 294.975C899.186 295.292 898.581 295.62 897.935 295.96C897.311 296.307 896.832 296.563 896.498 296.729ZM920.852 296.654C921.327 295.244 921.191 293.957 920.443 292.793C919.718 291.637 918.821 290.879 917.752 290.519C916.479 290.09 915.112 290.199 913.653 290.847C912.224 291.48 911.372 292.206 911.096 293.025L907.9 302.509C910.884 302.147 913.656 301.473 916.217 300.487C918.786 299.478 920.331 298.201 920.852 296.654ZM926.154 314.966C926.268 314.928 926.461 314.842 926.735 314.706C927.009 314.57 927.32 314.511 927.669 314.527C928.018 314.543 928.216 314.559 928.261 314.574C928.42 314.628 928.564 314.765 928.692 314.986C928.828 315.183 928.843 315.441 928.735 315.76C928.643 316.033 928.491 316.26 928.278 316.441C928.095 316.608 927.886 316.664 927.651 316.61L924.262 319.001C922.742 319.755 921.78 320.166 921.378 320.233C920.968 320.322 920.24 320.191 919.193 319.838C917.579 319.294 916.357 317.882 915.53 315.603C914.915 313.521 914.303 311.428 913.695 309.324C912.853 307.014 911.613 305.583 909.975 305.031C908.724 304.61 907.833 304.55 907.3 304.852C906.798 305.139 906.394 305.737 906.088 306.647C906.019 306.851 905.946 307.067 905.869 307.295C905.793 307.522 905.727 307.753 905.673 307.989C905.083 309.74 904.945 311.352 905.259 312.826C905.581 314.276 905.745 315.104 905.752 315.309L896.575 312.216C896.712 312.035 897.233 311.615 898.139 310.958C899.052 310.278 899.581 309.722 899.727 309.29L905.038 293.528C905.36 292.573 905.438 291.815 905.273 291.252C905.108 290.69 904.685 289.991 904.005 289.154L904.338 288.164C905.673 288.487 907.251 288.576 909.073 288.43C910.925 288.269 912.713 288.112 914.437 287.958C916.486 287.889 918.295 288.119 919.865 288.648C922.185 289.429 924.032 290.71 925.408 292.491C926.806 294.279 927.164 296.185 926.482 298.209C925.769 300.324 924.288 301.674 922.04 302.259C919.792 302.844 918.003 303.304 916.674 303.642C917.738 305.216 918.564 306.9 919.15 308.693C919.736 310.486 920.274 312.123 920.762 313.605C921.266 314.889 921.928 315.669 922.747 315.945C923.514 315.773 924.125 315.612 924.581 315.462C925.06 315.319 925.584 315.154 926.154 314.966ZM956.453 308.803C956.058 308.923 955.417 309.061 954.528 309.218C953.64 309.374 952.197 309.597 950.2 309.887C950.061 308.346 949.754 307.039 949.279 305.967C948.827 304.903 948.01 304.172 946.827 303.774C945.918 303.467 945.12 303.54 944.436 303.993C943.751 304.447 942.99 305.165 942.152 306.149L940.761 310.277L951.268 313.818C950.987 314.128 950.697 314.461 950.4 314.817C950.103 315.172 949.793 315.828 949.471 316.783C949.38 316.752 948.463 316.507 946.719 316.046C944.982 315.562 943.728 315.189 942.954 314.929C942.022 314.615 941.355 314.377 940.953 314.217C940.582 314.041 940.157 313.797 939.68 313.484C938.745 316.258 937.773 318.729 936.764 320.897C935.786 323.049 934.356 325.112 932.475 327.087C930.586 329.085 928.283 330.322 925.564 330.799L925.794 330.116C927.342 328.004 928.603 326.251 929.579 324.858C930.555 323.464 931.201 322.302 931.515 321.369L934.63 312.124L931.116 310.94C931.216 310.644 931.354 310.273 931.53 309.826C931.706 309.378 931.825 309.064 931.886 308.882L932.024 308.472C932.062 308.359 932.12 308.112 932.197 307.733L935.711 308.917L936.125 307.689C936.111 307.203 936.136 306.452 936.2 305.435C936.295 304.403 936.344 303.394 936.347 302.407L951.645 299.737C952.794 300.985 953.652 302.236 954.217 303.49C954.812 304.73 955.558 306.5 956.453 308.803ZM974.356 314.684C974.832 313.274 974.695 311.987 973.948 310.823C973.223 309.667 972.326 308.909 971.257 308.549C969.984 308.12 968.617 308.229 967.158 308.877C965.729 309.51 964.877 310.236 964.601 311.054L961.405 320.538C964.389 320.176 967.161 319.502 969.722 318.517C972.29 317.508 973.835 316.23 974.356 314.684ZM979.658 332.996C979.772 332.958 979.966 332.871 980.24 332.736C980.514 332.6 980.825 332.54 981.174 332.557C981.523 332.573 981.72 332.589 981.766 332.604C981.925 332.658 982.069 332.795 982.197 333.015C982.333 333.213 982.347 333.471 982.24 333.79C982.148 334.063 981.996 334.29 981.783 334.471C981.6 334.638 981.391 334.694 981.156 334.64L977.767 337.031C976.246 337.785 975.285 338.195 974.883 338.262C974.472 338.352 973.744 338.221 972.698 337.868C971.083 337.324 969.862 335.912 969.035 333.633C968.419 331.551 967.808 329.458 967.2 327.354C966.357 325.044 965.117 323.613 963.48 323.061C962.229 322.64 961.337 322.58 960.805 322.882C960.303 323.168 959.899 323.767 959.593 324.676C959.524 324.881 959.451 325.097 959.374 325.325C959.297 325.552 959.232 325.783 959.178 326.018C958.588 327.77 958.45 329.382 958.764 330.855C959.086 332.306 959.25 333.134 959.257 333.339L950.08 330.246C950.217 330.065 950.738 329.645 951.644 328.988C952.557 328.308 953.086 327.752 953.231 327.319L958.543 311.558C958.864 310.603 958.943 309.844 958.778 309.282C958.613 308.72 958.19 308.02 957.51 307.183L957.843 306.194C959.178 306.517 960.756 306.606 962.578 306.46C964.43 306.299 966.218 306.142 967.941 305.988C969.991 305.919 971.8 306.149 973.369 306.677C975.689 307.459 977.537 308.74 978.912 310.521C980.311 312.309 980.669 314.215 979.987 316.239C979.274 318.354 977.793 319.704 975.545 320.289C973.296 320.873 971.508 321.334 970.178 321.671C971.243 323.246 972.069 324.93 972.655 326.723C973.241 328.516 973.778 330.153 974.267 331.635C974.771 332.919 975.433 333.699 976.251 333.975C977.018 333.803 977.63 333.642 978.086 333.491C978.564 333.349 979.089 333.184 979.658 332.996ZM1003.85 330.74L1005.48 325.93C1005.41 325.376 1005.43 324.951 1005.53 324.655C1005.63 324.413 1005.71 324.212 1005.77 324.053C1005.81 323.916 1005.84 323.723 1005.85 323.472C1005.88 323.229 1005.88 322.952 1005.86 322.641L1005.49 320.579L996.999 317.717C996.479 318.884 995.894 320.207 995.244 321.684C994.601 323.139 994.071 324.075 993.652 324.491L992.801 327.016L1003.85 330.74ZM991.808 314.068L993.628 314.53L997.039 315.679L1014.37 321.519L1014.05 322.475C1013.84 322.58 1013.61 322.693 1013.36 322.814C1013.15 322.919 1012.88 323.093 1012.54 323.335C1012.22 323.554 1011.9 323.864 1011.58 324.265C1011.28 324.644 1011.01 325.174 1010.78 325.856L1006.32 339.093C1005.28 342.186 1004.77 344.435 1004.81 345.839C1005.11 347.13 1005.33 348.129 1005.47 348.835L991.584 344.156L991.895 343.235C991.963 343.258 992.198 343.35 992.599 343.511C993.001 343.671 993.361 343.805 993.68 343.913C995.658 344.579 997.157 344.755 998.175 344.44C999.215 344.132 999.904 343.478 1000.24 342.477L1002.76 335.006L990.444 330.856C989.985 331.917 989.354 333.3 988.552 335.005C987.78 336.695 986.769 338.38 985.518 340.061C984.268 341.742 983.131 342.41 982.108 342.065C981.676 341.919 981.392 341.671 981.256 341.322C981.144 340.98 981.141 340.65 981.248 340.331C981.317 340.127 981.953 339.632 983.154 338.846C984.364 338.038 985.285 337.108 985.919 336.055C986.575 335.01 987.277 333.714 988.026 332.168C988.782 330.6 990.005 328.023 991.694 324.439C993.391 320.832 994.346 318.9 994.559 318.643L995.215 316.698L990.507 315.112L990.829 314.156C991.01 314.218 991.181 314.237 991.341 314.215C991.5 314.193 991.656 314.144 991.808 314.068ZM1043.67 332.457C1043.16 332.387 1042.65 332.367 1042.14 332.395L1041.1 332.654L1032.32 358.718L1030.37 358.062C1030.69 356.652 1030.27 354.635 1029.1 352.013C1027.97 349.376 1026.88 346.894 1025.84 344.569C1023.57 338.512 1022.19 334.842 1021.69 333.558C1021.19 332.251 1020.53 331.243 1019.7 330.535L1013.78 348.104C1012.82 350.969 1011.73 353.186 1010.52 354.753C1009.02 356.349 1007.81 357.704 1006.91 358.817L1005.92 358.483L1006.24 357.528C1006.54 357.248 1007.36 356.056 1008.7 353.95C1010.04 351.845 1010.9 350.223 1011.29 349.086L1016.01 335.065C1016.85 332.563 1017.42 330.664 1017.7 329.367C1018 328.047 1018.1 327.057 1018.02 326.397C1017.96 325.744 1017.69 325.17 1017.2 324.675C1016.7 324.18 1016.4 323.811 1016.28 323.568C1017.06 323.578 1018.01 323.634 1019.15 323.736C1020.28 323.816 1021.55 323.915 1022.96 324.033L1032.9 347.29L1033.43 347.849L1037.93 334.51C1038.58 332.577 1038.47 331.325 1037.6 330.752C1037.13 330.493 1036.66 330.222 1036.2 329.94L1036.53 328.95L1044.01 331.468L1043.67 332.457ZM1052.05 338.207L1049.64 345.371C1051.74 345.067 1053.83 344.288 1055.9 343.035C1058 341.767 1059.1 340.962 1059.22 340.621C1059.29 340.417 1059.35 340.185 1059.41 339.927C1059.5 339.677 1059.51 339.415 1059.45 339.142C1059.42 338.854 1059.34 338.61 1059.2 338.413C1059.1 338.2 1058.92 337.964 1058.68 337.705C1058.46 337.454 1058.28 337.29 1058.13 337.214C1057.98 337.115 1057.71 336.958 1057.3 336.744C1056.91 336.538 1056.58 336.389 1056.31 336.297C1056.1 336.228 1055.78 336.17 1055.34 336.123C1054.93 336.061 1054.62 336.034 1054.42 336.04C1054.21 336.047 1053.93 336.13 1053.58 336.288C1053.22 336.446 1052.91 336.684 1052.65 337.002C1052.41 337.328 1052.22 337.729 1052.05 338.207ZM1053.99 364.921L1054.38 364.672C1055.23 363.969 1055.79 363.462 1056.07 363.152C1056.36 362.819 1056.63 362.288 1056.87 361.561C1057.38 360.06 1057.01 357.478 1055.76 353.816C1054.52 350.131 1052.98 347.978 1051.14 347.357C1050.73 347.447 1050.26 347.544 1049.75 347.648C1049.25 347.761 1048.76 347.937 1048.28 348.179L1045.21 357.287L1044.77 361.851L1037.27 359.322L1037.6 358.333C1038.38 358.115 1038.95 357.851 1039.31 357.541C1039.67 357.209 1039.9 356.906 1040 356.633L1046.9 336.13C1047.15 335.402 1047.12 334.745 1046.81 334.16C1046.53 333.559 1046.33 333.138 1046.21 332.894C1046.09 332.651 1045.97 332.446 1045.85 332.278L1046.26 331.506L1070.55 339.691L1070.27 340.509C1069.88 340.554 1069.51 340.594 1069.17 340.631C1068.83 340.668 1068.16 340.783 1067.15 340.977C1066.17 341.179 1064.77 341.592 1062.94 342.216C1061.11 342.84 1059.03 343.725 1056.72 344.871C1058.67 348.034 1060.01 350.725 1060.73 352.944C1061.47 355.17 1061.87 357.016 1061.94 358.481C1062.01 359.923 1062 362.568 1061.92 366.415L1061.91 367.588L1053.99 364.921ZM1091.66 362.494C1090.73 363.015 1089.81 363.528 1088.9 364.033C1087.87 364.523 1086.9 364.611 1085.96 364.297L1075.07 358.842L1073.85 358.428L1073.1 360.646C1073.03 363.332 1073.37 365.599 1074.11 367.446C1074.88 369.3 1076.39 370.607 1078.64 371.365C1079.82 371.764 1081.36 371.685 1083.24 371.13C1085.13 370.552 1086.47 369.114 1087.24 366.817L1092.36 368.541L1092.04 369.497C1089.3 371.992 1086.76 373.468 1084.43 373.923C1082.1 374.378 1079.71 374.196 1077.28 373.376C1073.8 372.203 1071.08 369.857 1069.13 366.336C1067.21 362.801 1066.91 359.066 1068.23 355.131C1068.88 353.221 1069.9 351.589 1071.29 350.235C1072.7 348.889 1074.37 347.778 1076.29 346.904C1078.22 346.038 1080.17 345.49 1082.12 345.261C1084.08 345.01 1085.6 345.068 1086.7 345.436C1088.4 346.01 1089.95 346.9 1091.34 348.103C1092.59 349.36 1093.84 350.605 1095.1 351.838C1095.4 351.763 1095.74 351.7 1096.11 351.648C1096.52 351.581 1097.03 351.564 1097.65 351.596L1097.21 352.893C1096.7 353.126 1095.54 353.544 1093.71 354.145C1091.9 354.723 1090.76 355.061 1090.3 355.158C1090.02 352.683 1089.48 350.958 1088.7 349.984C1087.92 348.988 1087.05 348.328 1086.1 348.006C1085.79 347.93 1085.6 347.876 1085.5 347.845C1083.21 347.071 1081.43 347.206 1080.16 348.249C1078.92 349.3 1077.42 350.896 1075.66 353.038L1074.92 355.256L1078.85 356.088L1084.54 357.701L1089.09 359.082L1091.45 359.727L1094.91 360.74C1094.35 361.057 1093.74 361.385 1093.1 361.725C1092.47 362.072 1092 362.328 1091.66 362.494ZM1127.46 360.692C1126.95 360.622 1126.44 360.601 1125.92 360.63L1124.89 360.889L1116.1 386.952L1114.16 386.297C1114.48 384.887 1114.06 382.87 1112.89 380.248C1111.76 377.611 1110.67 375.129 1109.63 372.803C1107.36 366.747 1105.98 363.077 1105.47 361.793C1104.98 360.486 1104.32 359.478 1103.49 358.769L1097.57 376.339C1096.61 379.204 1095.52 381.421 1094.31 382.988C1092.81 384.584 1091.6 385.939 1090.69 387.051L1089.71 386.718L1090.03 385.763C1090.32 385.483 1091.14 384.29 1092.49 382.185C1093.83 380.079 1094.69 378.458 1095.08 377.321L1099.8 363.3C1100.64 360.798 1101.21 358.898 1101.49 357.602C1101.79 356.282 1101.89 355.292 1101.81 354.631C1101.75 353.978 1101.48 353.404 1100.98 352.91C1100.49 352.415 1100.19 352.046 1100.07 351.802C1100.85 351.812 1101.8 351.869 1102.93 351.971C1104.07 352.051 1105.34 352.15 1106.75 352.268L1116.69 375.525L1117.22 376.084L1121.72 362.745C1122.37 360.812 1122.26 359.559 1121.39 358.987C1120.92 358.728 1120.45 358.457 1119.99 358.174L1120.32 357.185L1127.79 359.703L1127.46 360.692Z" fill="white"/>
      <path d="M297.61 325.063L298.976 324.436L324.218 320.904C324.096 321.066 323.906 321.359 323.651 321.783C323.415 322.179 323.027 322.609 322.486 323.073C321.969 323.533 321.782 324.274 321.925 325.296L324.345 342.587C324.538 343.966 324.883 344.96 325.38 345.569C325.874 346.154 326.628 346.521 327.642 346.67L327.782 347.668C326.978 348.677 326.3 349.463 325.749 350.024C325.218 350.559 324.786 350.85 324.453 350.896C323.669 351.006 322.838 350.698 321.961 349.973C321.105 349.22 320.496 348.336 320.136 347.32C319.415 347.712 318.484 348.678 317.343 350.219C316.222 351.733 314.984 352.585 313.629 352.775C313.082 352.851 311.694 352.367 309.463 351.322C307.257 350.274 305.098 348.698 302.986 346.594C300.894 344.463 299.636 341.877 299.21 338.834C299.044 337.646 299.236 335.814 299.786 333.338C300.36 330.858 301.417 328.372 302.959 325.878C301.798 325.725 300.838 325.702 300.077 325.808C299.388 325.905 298.649 326.166 297.86 326.591L297.61 325.063ZM307.703 343.935C308.595 345.118 309.615 345.994 310.76 346.56C311.926 347.1 312.973 347.305 313.9 347.175C315.611 346.936 316.867 346.215 317.668 345.012C318.466 343.786 318.684 341.877 318.321 339.286L316.515 326.38L315.331 323.892C314.784 323.969 314.063 324.009 313.167 324.013C312.271 324.017 311.632 324.046 311.252 324.099C310.896 324.149 310.544 324.235 310.198 324.356C309.848 324.453 309.493 324.6 309.132 324.796C308.769 324.968 308.432 325.16 308.122 325.373C307.837 325.583 307.514 325.871 307.153 326.236C306.816 326.598 306.562 326.949 306.391 327.288C306.22 327.627 306.027 328.066 305.812 328.605C305.597 329.144 305.439 329.663 305.339 330.161C305.239 330.66 305.124 331.221 304.993 331.845C304.859 332.446 304.752 332.982 304.673 333.453C304.594 333.925 304.544 334.526 304.525 335.255C304.503 335.961 304.537 336.635 304.626 337.277C304.726 337.99 304.873 338.696 305.068 339.396C305.287 340.092 305.465 340.673 305.603 341.139C305.765 341.601 305.967 342.009 306.21 342.362C306.45 342.692 306.684 342.975 306.911 343.209C307.161 343.441 307.425 343.683 307.703 343.935ZM354.218 318.378C353.733 318.543 353.265 318.753 352.816 319.01L352.005 319.705L355.817 346.944L353.784 347.228C353.442 345.822 352.162 344.208 349.944 342.386C347.747 340.536 345.663 338.804 343.692 337.19C338.956 332.788 336.075 330.125 335.05 329.203C334.02 328.256 332.978 327.651 331.924 327.386L334.493 345.747C334.912 348.742 334.93 351.211 334.548 353.155C333.921 355.254 333.451 357.004 333.138 358.405L332.104 358.55L331.965 357.552C332.105 357.169 332.304 355.735 332.562 353.251C332.821 350.768 332.867 348.932 332.7 347.743L330.65 333.09C330.284 330.475 329.938 328.524 329.613 327.237C329.284 325.926 328.935 324.993 328.567 324.439C328.222 323.881 327.719 323.491 327.058 323.269C326.397 323.046 325.958 322.853 325.741 322.69C326.445 322.349 327.325 321.971 328.382 321.557C329.435 321.119 330.616 320.638 331.924 320.116L351.224 336.463L351.951 336.725L350 322.785C349.718 320.764 349.059 319.693 348.024 319.572C347.488 319.55 346.95 319.516 346.41 319.47L346.266 318.436L354.074 317.344L354.218 318.378ZM383.17 336.246C383.273 336.983 382.347 338.336 380.393 340.306C378.463 342.272 376.06 343.457 373.184 343.859C371.948 344.032 370.196 343.805 367.927 343.177C365.682 342.546 363.591 341.373 361.655 339.656C359.715 337.916 358.534 335.537 358.111 332.519C357.789 330.213 358.077 327.943 358.976 325.709C359.872 323.451 360.702 321.42 361.468 319.617C360.137 319.803 359.012 320.251 358.093 320.962C357.195 321.645 356.311 322.338 355.44 323.041C355.558 320.941 356.435 319.243 358.072 317.948C359.728 316.625 361.258 315.866 362.66 315.67L379.274 313.345C379.03 314.542 378.797 315.738 378.577 316.932C378.207 318.099 377.546 318.748 376.596 318.881L363.847 318.957C363.646 319.421 363.417 320.386 363.162 321.852C362.93 323.314 363.094 326.042 363.652 330.035C364.102 333.243 365.238 335.908 367.061 338.027C368.908 340.144 371.258 341.003 374.11 340.603C375.703 340.381 377.218 339.696 378.657 338.549C380.117 337.376 381.455 336.292 382.673 335.298C382.785 335.403 382.888 335.534 382.983 335.69C383.074 335.823 383.136 336.008 383.17 336.246ZM408.277 324.081C407.674 324.965 407.081 325.836 406.498 326.693C405.8 327.59 404.963 328.107 403.989 328.243L391.811 328.239L390.527 328.419L390.852 330.736C391.992 333.17 393.308 335.045 394.801 336.363C396.318 337.678 398.253 338.17 400.606 337.841C401.842 337.668 403.178 336.911 404.614 335.571C406.047 334.208 406.596 332.326 406.26 329.925L411.608 329.177L411.747 330.175C410.414 333.633 408.806 336.087 406.925 337.538C405.044 338.989 402.832 339.892 400.289 340.248C396.652 340.757 393.172 339.875 389.849 337.601C386.547 335.301 384.608 332.095 384.032 327.983C383.753 325.986 383.933 324.071 384.573 322.236C385.237 320.398 386.229 318.66 387.551 317.021C388.896 315.379 390.39 314.019 392.033 312.941C393.672 311.839 395.062 311.208 396.203 311.049C397.985 310.799 399.769 310.901 401.553 311.354C403.231 311.919 404.908 312.472 406.583 313.013C406.821 312.81 407.095 312.602 407.405 312.389C407.735 312.149 408.185 311.904 408.756 311.655L408.946 313.01C408.595 313.446 407.738 314.342 406.377 315.695C405.012 317.025 404.144 317.837 403.773 318.132C402.415 316.044 401.166 314.74 400.027 314.221C398.885 313.678 397.815 313.477 396.817 313.616C396.511 313.683 396.311 313.723 396.215 313.737C393.815 314.073 392.283 314.99 391.62 316.488C390.981 317.983 390.354 320.082 389.739 322.786L390.063 325.103L393.956 324.086L399.763 322.982L404.449 322.181L406.854 321.699L410.399 321.058C410.038 321.593 409.644 322.157 409.218 322.75C408.816 323.339 408.502 323.783 408.277 324.081ZM430.022 313.114C429.816 311.64 429.118 310.55 427.929 309.844C426.763 309.135 425.622 308.858 424.505 309.015C423.174 309.201 422.001 309.91 420.986 311.143C419.991 312.348 419.554 313.379 419.673 314.235L421.06 324.146C423.567 322.487 425.744 320.643 427.593 318.615C429.438 316.564 430.248 314.73 430.022 313.114ZM442.959 327.116C443.044 327.031 443.179 326.867 443.363 326.623C443.547 326.379 443.799 326.187 444.118 326.045C444.438 325.903 444.621 325.829 444.669 325.823C444.835 325.799 445.025 325.857 445.238 325.997C445.448 326.113 445.577 326.338 445.623 326.67C445.663 326.956 445.628 327.227 445.519 327.485C445.43 327.715 445.269 327.859 445.034 327.916L443.074 331.571C442.052 332.926 441.376 333.723 441.046 333.963C440.719 334.227 440.009 334.435 438.916 334.588C437.228 334.824 435.504 334.108 433.744 332.44C432.262 330.854 430.778 329.257 429.293 327.647C427.506 325.958 425.756 325.234 424.045 325.473C422.738 325.656 421.914 326.002 421.573 326.51C421.253 326.991 421.159 327.707 421.292 328.658C421.322 328.871 421.353 329.097 421.387 329.335C421.42 329.573 421.465 329.809 421.522 330.043C421.778 331.873 422.376 333.377 423.317 334.554C424.253 335.707 424.771 336.374 424.869 336.554L415.278 337.896C415.32 337.672 415.598 337.064 416.113 336.071C416.625 335.054 416.85 334.32 416.786 333.868L414.482 317.397C414.342 316.398 414.072 315.685 413.673 315.256C413.274 314.827 412.583 314.391 411.6 313.947L411.455 312.913C412.793 312.604 414.244 311.977 415.808 311.031C417.393 310.058 418.921 309.118 420.393 308.209C422.195 307.23 423.916 306.625 425.556 306.396C427.98 306.057 430.206 306.375 432.233 307.352C434.283 308.325 435.457 309.869 435.753 311.985C436.062 314.195 435.342 316.065 433.593 317.594C431.844 319.123 430.451 320.336 429.413 321.232C431.07 322.164 432.562 323.3 433.889 324.641C435.215 325.982 436.429 327.206 437.529 328.312C438.554 329.235 439.495 329.636 440.351 329.517C440.96 329.019 441.434 328.602 441.775 328.263C442.139 327.921 442.534 327.539 442.959 327.116ZM467.296 308.043C466.997 308.327 466.485 308.738 465.76 309.276C465.036 309.813 463.845 310.659 462.189 311.811C461.375 310.495 460.516 309.464 459.612 308.719C458.731 307.969 457.673 307.681 456.437 307.854C455.486 307.987 454.806 308.41 454.397 309.121C453.988 309.833 453.629 310.816 453.319 312.071L453.923 316.385L464.904 314.848C464.791 315.252 464.681 315.679 464.575 316.13C464.468 316.581 464.485 317.306 464.624 318.304C464.529 318.318 463.599 318.508 461.833 318.877C460.063 319.221 458.775 319.45 457.967 319.563C456.992 319.7 456.289 319.786 455.858 319.822C455.447 319.831 454.959 319.802 454.392 319.736C454.798 322.636 455.035 325.281 455.102 327.67C455.191 330.033 454.836 332.518 454.037 335.126C453.242 337.757 451.736 339.895 449.518 341.538L449.419 340.825C449.857 338.243 450.201 336.111 450.45 334.428C450.699 332.746 450.756 331.417 450.619 330.442L449.267 320.781L445.595 321.294C445.552 320.985 445.509 320.592 445.466 320.113C445.423 319.634 445.389 319.3 445.362 319.11L445.302 318.682C445.286 318.563 445.227 318.317 445.126 317.943L448.798 317.429L448.619 316.146C448.389 315.717 448.076 315.034 447.678 314.096C447.3 313.131 446.892 312.207 446.454 311.323L458.938 302.088C460.525 302.69 461.852 303.425 462.918 304.294C464.005 305.135 465.465 306.385 467.296 308.043ZM485.938 305.289C485.732 303.815 485.034 302.726 483.845 302.02C482.679 301.31 481.538 301.034 480.421 301.19C479.09 301.376 477.917 302.086 476.902 303.318C475.907 304.524 475.47 305.554 475.59 306.41L476.977 316.321C479.483 314.662 481.66 312.819 483.509 310.791C485.355 308.739 486.164 306.905 485.938 305.289ZM498.875 319.291C498.96 319.207 499.095 319.042 499.279 318.799C499.463 318.555 499.715 318.362 500.034 318.22C500.354 318.079 500.537 318.005 500.585 317.998C500.751 317.975 500.941 318.033 501.154 318.173C501.364 318.289 501.493 318.513 501.539 318.846C501.579 319.131 501.545 319.402 501.435 319.66C501.346 319.891 501.185 320.034 500.95 320.091L498.99 323.746C497.968 325.101 497.292 325.898 496.962 326.139C496.635 326.402 495.925 326.611 494.832 326.764C493.144 327 491.421 326.284 489.66 324.616C488.178 323.03 486.695 321.432 485.209 319.822C483.422 318.134 481.673 317.409 479.961 317.649C478.654 317.832 477.83 318.177 477.489 318.685C477.169 319.166 477.075 319.882 477.208 320.833C477.238 321.047 477.27 321.273 477.303 321.51C477.336 321.748 477.381 321.984 477.438 322.218C477.694 324.049 478.292 325.552 479.233 326.729C480.17 327.883 480.687 328.549 480.785 328.729L471.194 330.071C471.236 329.848 471.514 329.239 472.029 328.246C472.541 327.229 472.766 326.495 472.703 326.044L470.398 309.572C470.258 308.574 469.988 307.86 469.589 307.431C469.19 307.003 468.499 306.566 467.516 306.122L467.371 305.088C468.709 304.78 470.16 304.153 471.724 303.207C473.309 302.234 474.837 301.293 476.309 300.384C478.111 299.405 479.832 298.801 481.472 298.571C483.896 298.232 486.122 298.551 488.149 299.527C490.2 300.5 491.373 302.045 491.669 304.16C491.978 306.37 491.258 308.24 489.509 309.769C487.76 311.298 486.367 312.511 485.329 313.408C486.986 314.339 488.478 315.475 489.805 316.816C491.132 318.157 492.345 319.381 493.445 320.487C494.471 321.41 495.411 321.812 496.267 321.692C496.876 321.195 497.351 320.777 497.691 320.438C498.055 320.097 498.45 319.714 498.875 319.291ZM519.503 306.445L518.8 301.418C518.492 300.952 518.317 300.564 518.274 300.255C518.261 299.99 518.243 299.775 518.22 299.609C518.2 299.466 518.137 299.281 518.033 299.053C517.952 298.822 517.832 298.572 517.673 298.304L516.421 296.625L507.543 297.867C507.601 299.144 507.669 300.588 507.75 302.201C507.827 303.789 507.771 304.863 507.583 305.423L507.952 308.061L519.503 306.445ZM501.268 296.928L503.102 296.526L506.668 296.027L524.779 293.492L524.919 294.491C524.776 294.68 524.623 294.884 524.459 295.1C524.316 295.29 524.149 295.568 523.958 295.934C523.763 296.276 523.616 296.697 523.516 297.195C523.413 297.67 523.411 298.264 523.511 298.977L525.447 312.81C525.899 316.043 526.454 318.279 527.113 319.52C527.958 320.541 528.603 321.335 529.046 321.903L514.535 323.934L514.4 322.971C514.472 322.961 514.723 322.938 515.154 322.902C515.585 322.866 515.967 322.825 516.3 322.778C518.368 322.489 519.786 321.975 520.556 321.238C521.348 320.496 521.672 319.603 521.525 318.557L520.433 310.749L507.562 312.55C507.627 313.705 507.682 315.224 507.727 317.107C507.793 318.964 507.643 320.924 507.278 322.986C506.912 325.049 506.194 326.155 505.125 326.305C504.673 326.368 504.309 326.274 504.031 326.022C503.777 325.766 503.627 325.472 503.58 325.14C503.551 324.926 503.897 324.199 504.62 322.958C505.34 321.695 505.747 320.45 505.843 319.225C505.962 317.997 506.01 316.524 505.988 314.806C505.962 313.065 505.902 310.214 505.809 306.253C505.711 302.268 505.701 300.112 505.776 299.787L505.492 297.755L500.572 298.443L500.432 297.445C500.622 297.418 500.784 297.359 500.916 297.268C501.049 297.177 501.166 297.063 501.268 296.928ZM555.878 290.158C555.393 290.323 554.925 290.534 554.477 290.791L553.665 291.486L557.477 318.725L555.445 319.009C555.102 317.603 553.822 315.989 551.604 314.166C549.407 312.317 547.323 310.585 545.352 308.971C540.616 304.569 537.735 301.906 536.71 300.983C535.681 300.037 534.639 299.431 533.584 299.167L536.153 317.528C536.572 320.523 536.591 322.992 536.208 324.936C535.581 327.035 535.111 328.785 534.798 330.186L533.764 330.331L533.625 329.332C533.765 328.949 533.964 327.516 534.222 325.032C534.481 322.548 534.527 320.712 534.36 319.524L532.31 304.871C531.944 302.256 531.598 300.305 531.273 299.018C530.944 297.707 530.595 296.774 530.227 296.22C529.882 295.662 529.379 295.272 528.718 295.05C528.057 294.827 527.618 294.634 527.401 294.471C528.105 294.13 528.985 293.752 530.042 293.338C531.095 292.899 532.276 292.419 533.584 291.897L552.884 308.244L553.611 308.506L551.661 294.565C551.378 292.545 550.719 291.474 549.684 291.352C549.148 291.33 548.61 291.297 548.071 291.251L547.926 290.217L555.734 289.124L555.878 290.158ZM565.948 291.548L566.996 299.035C568.74 297.822 570.257 296.192 571.546 294.146C572.855 292.072 573.485 290.857 573.435 290.501C573.405 290.287 573.36 290.051 573.3 289.793C573.263 289.531 573.157 289.292 572.981 289.074C572.825 288.829 572.643 288.649 572.433 288.533C572.243 288.389 571.982 288.256 571.65 288.133C571.341 288.007 571.102 287.943 570.932 287.943C570.759 287.919 570.442 287.902 569.98 287.894C569.543 287.883 569.181 287.897 568.896 287.937C568.682 287.967 568.368 288.059 567.953 288.214C567.559 288.342 567.272 288.455 567.092 288.553C566.912 288.651 566.697 288.85 566.449 289.152C566.2 289.453 566.031 289.804 565.942 290.204C565.876 290.601 565.878 291.049 565.948 291.548ZM579.638 314.569L579.874 314.173C580.314 313.166 580.591 312.461 580.705 312.057C580.814 311.63 580.816 311.036 580.71 310.275C580.49 308.707 579.003 306.564 576.248 303.848C573.489 301.107 571.148 299.872 569.222 300.141C568.896 300.405 568.525 300.7 568.11 301.024C567.719 301.345 567.36 301.723 567.032 302.156L568.365 311.676L570.017 315.952L562.174 317.049L562.029 316.016C562.631 315.471 563.023 314.98 563.204 314.542C563.382 314.081 563.451 313.708 563.411 313.423L560.412 291.996C560.306 291.235 559.984 290.662 559.445 290.277C558.927 289.865 558.559 289.577 558.343 289.414C558.126 289.25 557.926 289.121 557.743 289.025L557.766 288.149L583.151 284.597L583.27 285.453C582.937 285.669 582.626 285.87 582.337 286.056C582.048 286.242 581.499 286.646 580.689 287.268C579.903 287.887 578.831 288.885 577.473 290.263C576.115 291.64 574.659 293.359 573.105 295.418C576.263 297.375 578.661 299.184 580.299 300.845C581.961 302.503 583.148 303.973 583.86 305.254C584.569 306.512 585.749 308.879 587.399 312.356L587.91 313.412L579.638 314.569ZM612.235 295.54C611.632 296.424 611.039 297.295 610.456 298.152C609.758 299.049 608.921 299.566 607.947 299.703L595.769 299.698L594.485 299.878L594.81 302.195C595.95 304.629 597.267 306.504 598.76 307.822C600.276 309.137 602.211 309.629 604.564 309.3C605.8 309.127 607.136 308.371 608.573 307.031C610.005 305.667 610.554 303.785 610.218 301.384L615.566 300.636L615.705 301.634C614.372 305.092 612.764 307.547 610.883 308.997C609.002 310.448 606.79 311.351 604.247 311.707C600.61 312.216 597.13 311.334 593.807 309.06C590.505 306.76 588.566 303.554 587.99 299.442C587.711 297.445 587.891 295.53 588.531 293.695C589.195 291.858 590.187 290.119 591.509 288.48C592.854 286.838 594.348 285.478 595.991 284.4C597.63 283.298 599.02 282.667 600.161 282.508C601.943 282.258 603.727 282.36 605.511 282.813C607.189 283.378 608.866 283.931 610.541 284.472C610.779 284.269 611.053 284.061 611.363 283.848C611.693 283.608 612.143 283.363 612.714 283.114L612.904 284.469C612.553 284.906 611.697 285.801 610.335 287.155C608.97 288.485 608.102 289.297 607.732 289.591C606.373 287.503 605.124 286.199 603.985 285.68C602.843 285.137 601.773 284.936 600.775 285.075C600.469 285.142 600.269 285.183 600.174 285.196C597.773 285.532 596.241 286.449 595.578 287.947C594.939 289.442 594.312 291.541 593.697 294.245L594.021 296.562L597.914 295.545L603.721 294.441L608.407 293.64L610.812 293.158L614.357 292.517C613.996 293.052 613.602 293.616 613.176 294.209C612.774 294.798 612.46 295.242 612.235 295.54ZM643.443 277.905C642.957 278.07 642.49 278.281 642.041 278.537L641.23 279.233L645.042 306.471L643.009 306.756C642.667 305.349 641.387 303.735 639.169 301.913C636.972 300.064 634.888 298.332 632.917 296.717C628.181 292.315 625.3 289.653 624.274 288.73C623.245 287.783 622.203 287.178 621.149 286.914L623.718 305.275C624.137 308.27 624.155 310.739 623.773 312.683C623.146 314.782 622.676 316.532 622.363 317.933L621.329 318.077L621.189 317.079C621.33 316.696 621.529 315.263 621.787 312.779C622.046 310.295 622.092 308.459 621.925 307.27L619.875 292.617C619.509 290.003 619.163 288.052 618.838 286.764C618.509 285.453 618.16 284.521 617.792 283.966C617.447 283.409 616.944 283.019 616.283 282.796C615.622 282.574 615.183 282.381 614.966 282.217C615.67 281.876 616.55 281.499 617.607 281.084C618.66 280.646 619.841 280.166 621.149 279.643L640.449 295.991L641.176 296.252L639.225 282.312C638.943 280.292 638.284 279.221 637.249 279.099C636.713 279.077 636.175 279.043 635.635 278.998L635.491 277.964L643.299 276.871L643.443 277.905Z" fill="white"/>
    </g>
    <g class="franken-map__pin">
      <path d="M830 722.128C833.78 721.91 841.34 720.165 841.34 720.165C841.34 720.165 841.34 709.988 841.34 705.553C840.904 704.826 840.032 702.718 840.032 700.101C840.032 697.484 840.032 698.284 840.032 699.011H839.596C840.613 698.066 842.693 696.045 842.867 695.521C843.041 694.998 842.94 693.123 842.867 692.25H842.33C843.527 691.16 845.92 688.674 845.92 687.452C845.92 688.674 848.313 691.16 849.51 692.25H848.973C848.901 693.122 848.799 694.998 848.973 695.521C849.148 696.045 851.227 698.066 852.245 699.011H851.809V700.101C851.809 702.718 850.936 704.826 850.5 705.553C850.5 705.553 850.5 714.975 850.5 716.021C850.5 717.068 851.809 721.474 857.697 712.314L860.314 712.532C860.314 712.532 865.539 716.497 867.074 717.548H866.579C866.839 718.588 868.306 721.331 868.306 721.331L871 721.037" stroke="white" stroke-width="2" stroke-linecap="round" stroke-linejoin="round"/>
      <path d="M847.224 687.452H844.619L845.702 684.617V682.654L845.535 682.571C845.386 682.497 845.326 682.315 845.401 682.167C845.452 682.064 845.556 682 845.67 682H845.702C845.836 682 845.958 682.076 846.018 682.195L846.078 682.316C846.117 682.395 846.138 682.482 846.138 682.571V684.617L847.224 687.452Z" stroke="white" stroke-width="2" stroke-linecap="round" stroke-linejoin="round"/>
      <path d="M859.442 702.718V712.096L859.224 704.463L857.043 705.335V704.027L859.442 702.718Z" stroke="white" stroke-width="2" stroke-linecap="round" stroke-linejoin="round"/>
    </g>
  </g>
  <g class="franken-map__outline">
    <path d="M715.574 491L713.669 496.189L696.092 509.849L710.387 517.049L708.429 527.426L695.404 533.303L688.892 533.938L682.38 520.914L673.961 522.872L645.849 512.389L623.666 513.659L621.707 520.807L598.941 516.253L587.242 523.401L572.259 539.019L570.988 540.977L564.476 548.125L558.599 545.531L556.64 549.45L567.07 552.679L576.811 552.043L578.769 554.637L572.945 555.272L568.391 563.108L579.403 589.738L563.149 597.573L540.383 595.615L538.425 598.209L530.642 595.615L509.836 591.061L502.001 596.25L501.366 608.64L490.301 619.704L467.535 598.209H464.942L453.877 611.233L448 616.422L449.323 632.729L453.877 647.659L453.825 647.923H453.931L456.525 651.207L464.996 674.608L461.132 684.401L468.279 692.82L477.385 723.421L482.574 738.351L486.493 741.635L484.534 746.188L466.322 748.782L464.364 781.977L470.876 786.531L474.795 784.573L474.107 798.868L475.43 804.745L483.213 813.851L475.43 826.186L470.876 818.403L467.647 828.78L473.472 834.021L469.553 835.98L472.836 861.339L473.472 868.487L491.048 879.551L494.967 876.958L515.773 892.576L522.92 898.4L526.839 910.789L504.708 930.96L524.243 933.554L530.068 953.089L526.839 954.359L527.474 965.424L551.563 974.53L553.521 976.488L558.711 971.934L565.858 974.528L567.181 989.511L574.964 990.146L578.883 999.888L592.172 1005.6L592.543 1005.55L597.096 989.299L600.961 988.664L623.091 985.435L636.751 987.341L651.734 969.817H667.988L672.542 980.193L687.525 980.829L686.889 1002.96L695.307 1000.36L701.82 1007.51L707.009 1015.98L708.332 1016.62L712.251 1029.64L699.861 1041.34L710.926 1051.09L715.48 1049.18L718.073 1055L727.867 1042.03L741.527 1037.43L753.227 1027.05L761.01 1023.13L764.928 1034.2L767.522 1045.9L760.374 1053.1L764.928 1056.33L780.546 1057.59L776.628 1063.47L783.14 1069.35L798.758 1064.79L811.783 1077.13H813.054L822.847 1077.77L827.401 1066.75L851.438 1060.88L850.802 1049.18L862.502 1043.93L865.096 1023.82L872.296 1014.02L874.202 1013.39L889.82 1010.79H896.968L903.48 980.829L911.951 972.41L920.421 958.751L943.187 954.832L947.106 978.921L956.847 984.745L973.736 988.664L1006.3 966.533L1009.53 964.575L1008.26 947.051L997.19 937.257L989.354 928.786L984.8 915.126L971.141 913.168L969.87 904.115L972.464 896.914L965.951 874.149L947.104 868.324L944.51 855.935H964.628L956.845 838.358L960.764 833.169L956.21 818.186L952.292 814.957L919.097 812.999L924.338 803.257L911.949 799.339L912.584 795.474L936.673 781.762L947.102 783.085L949.696 788.962L969.867 795.422L993.268 779.168L993.903 770.062L988.714 760.956H997.185L1008.89 737.555L1023.86 725.801L1017.99 723.895L1019.32 719.341L1023.17 712.141L1025.82 718.654L1034.24 716.748L1042.07 720.612L1052.45 725.166L1059.6 725.801L1064.2 719.341L1063.53 712.141L1071.99 699.171L1077.86 677.676L1053.15 664.016L1057.69 658.191L1058.96 640.615L1042.71 635.426L1051.18 627.59L1056.38 630.873L1063.53 620.444L1069.41 618.486L1064.84 614.567L1060.29 604.826L1058.33 602.868L1058.96 601.597L1071.35 594.397L1075.22 597.68L1079.15 589.845L1071.99 587.251L1077.18 578.833L1066.11 580.103L1062.9 567.079L1068.07 564.485L1061.92 539.878L1060.59 536.222L1061.04 578.198L1042.82 574.279L1033.08 580.156L1029.8 577.508L1021.39 583.385L1008.35 588.574L1008.99 595.086L1007.72 597.68L993.376 585.98L986.864 563.215L983 564.538L973.206 568.402L963.464 586.614L958.911 585.979L954.357 589.897L952.398 597.045L950.44 595.722L947.211 604.88L940.699 602.922L908.827 614.622L891.885 615.257L888.021 614.622L880.821 615.257L876.957 615.892L873.673 608.109L867.849 608.745L863.93 600.326L864.566 591.856L856.147 584.708L845.083 592.491L840.529 588.572L844.394 584.708L850.906 583.385L851.541 575.602L856.783 573.644L850.271 565.808L854.189 558.025L852.866 556.702L845.083 563.85L832.694 562.579L837.248 556.067L819.671 557.39V552.148L803.417 545.636L799.499 537.218L815.805 535.26L802.78 529.383L797.591 519.006L803.416 511.171L800.187 503.388L796.268 497.511L802.145 492.322L778.056 501.428L771.544 509.21L750.049 522.87L739.672 505.294L730.566 500.74L715.574 491Z"/>
    <path d="M972.817 21L961.752 22.958L962.44 26.823L952.646 43.076L944.228 47.63L931.204 49.643L923.368 50.278L926.652 64.573L933.164 87.974L933.799 103.593L939.676 125.088L937.028 140.706L930.568 139.383V143.302L927.285 167.391L931.839 179.726L926.015 184.28L905.155 169.984L901.926 182.319L896.049 183.643L899.967 175.807L883.078 170.618L878.524 163.47V156.958L888.901 148.487L881.118 130.275L870.689 121.805L861.583 123.128L857.664 130.275L842.734 135.465L837.492 132.871L838.816 126.359L821.927 130.277L818.643 134.831L801.754 110.794L797.836 106.876L791.324 109.47L788.04 110.74L774.435 106.186L766.599 110.105L755.535 106.876L743.835 115.982L737.323 112.063L732.769 120.534L718.474 126.359L711.326 134.829L708.678 149.812L750.344 180.359H762.044L762.679 181.047L765.273 196.665L754.208 205.719L744.467 196.665L736.684 197.301L732.13 203.813L716.512 197.301L715.189 210.801L728.214 215.99L736.684 232.932L734.726 257.656L746.426 266.762L760.721 262.844L765.962 255.696L775.704 266.76L769.191 283.649L769.827 297.309L769.191 309.009H762.044L758.761 320.073L761.354 323.992L749.655 331.775L738.59 326.586L732.13 340.933L725.618 343.527L726.253 348.081L731.443 347.393V355.864L721.701 361.741L730.172 376.036L717.147 379.954L714.554 385.144L722.337 389.698L720.378 394.887L711.96 399.493L711.272 405.953L708.043 404.047L700.208 428.719L690.466 425.49L678.131 436.554L675.483 443.702L667.065 448.891V436.556L657.271 445.662L641.653 435.868L633.87 435.92L626.087 435.233L624.764 438.516L607.188 433.962L604.594 438.516L602 453.446L602.635 469.752L611.741 492.518H620.212L630.641 482.089L638.424 488.601L644.989 512.003L672.995 522.327L681.465 520.421L687.978 533.391L694.49 532.756L707.515 526.879L709.473 516.502L695.125 509.355L712.702 495.695L714.66 490.453L729.591 500.247L738.697 504.801L749.126 522.325L770.567 508.665L777.079 500.882L801.168 491.776L795.291 496.965L799.21 502.842L802.493 510.625L796.616 518.461L801.805 528.837L814.83 534.714L798.576 536.673L802.495 545.143L818.748 551.603V556.845L836.325 555.522L831.771 562.034L844.106 563.357L851.942 556.157L853.212 557.48L849.294 565.315L855.806 573.098L850.617 575.057L849.982 582.84L843.469 584.163L839.551 588.027L844.105 591.946L855.169 584.163L863.64 591.31L862.952 599.781L866.87 608.199L872.747 607.564L875.976 615.399L879.895 614.712L887.043 614.076L890.961 614.712L907.85 614.076L939.722 602.376L946.234 604.335L949.517 595.229L951.476 596.5L953.382 589.352L957.988 585.433L962.542 586.121L972.283 567.909L982.025 563.991L985.943 562.668L992.455 585.433L1006.75 597.187L1008.07 594.539L1007.38 588.08L1020.41 582.838L1028.88 577.013L1032.11 579.607L1041.9 573.73L1060.11 577.649L1059.34 532.124L1060.11 532.119L1074.41 518.459L1073.77 507.394L1089.39 502.205L1088.07 493.735L1089.39 476.158L1093.95 472.239L1116.02 474.833L1116.71 472.239V463.769L1125.18 465.092L1125.82 464.456L1125.13 459.267L1132.33 454.026L1130.37 453.39L1144.03 450.107L1152.5 452.755L1171.98 442.326L1179.13 444.92L1172.67 425.437L1178.5 419.56L1165.47 410.454L1171.35 408.496L1167.43 390.284L1166.16 388.961L1160.28 390.919L1163.57 386.365H1164.2L1159.65 373.34L1167.43 372.07V370.747H1171.98L1172.62 371.435H1173.94L1183.68 372.07L1183.74 370.112L1195.44 366.882L1196.71 361.005L1205.81 364.924L1223.39 360.37L1225.35 357.776L1251.34 354.493L1294.97 352.535L1306.67 346.022L1314.45 344.752L1316.41 323.257L1335.31 319.392H1335.94L1341.71 306.422L1341.77 306.37L1343.62 294.246L1329.96 284.452L1319.58 279.898L1316.3 270.792L1313.07 257.133L1320.85 240.244L1315.03 224.625L1297.45 205.726L1293.53 195.984L1283.79 197.943L1268.81 185.608L1287.71 170.625L1279.24 156.277L1281.83 150.453L1271.46 143.94L1268.17 137.428H1243.45L1241.49 130.28L1219.36 123.768L1223.28 115.985L1221.32 106.879L1222.64 99.732L1214.17 94.49L1209.62 97.773L1207.02 83.426L1196.59 78.236L1189.45 84.113L1180.98 85.384L1173.19 95.178L1162.13 99.042L1157.58 101.636L1156.3 97.772L1145.88 84.112L1128.3 86.705L1132.85 92.53H1121.79L1121.15 93.218L1113.37 98.407L1108.82 95.178L1105.53 99.042L1100.98 100.365L1093.2 101.001L1082.77 103.594L1076.26 105.553L1068.47 98.405L1056.08 97.77L1053.49 104.282L1040.46 111.43L1033.95 100.365L1022.25 101.001L1021.62 87.976L1017.06 77.599L1004.67 82.789L1002.77 74.318L994.299 71.724L992.975 67.17L993.611 44.404L1001.45 35.298L994.299 25.557L972.817 21Z"/>
    <path d="M467.832 0L459.361 3.91901L446.337 22.766L435.96 30.601L435.272 39.707L431.408 53.367L419.019 65.067L414.465 75.443L394.294 91.062L379.364 101.491L362.423 106.045L348.763 100.22L342.25 91.75L340.98 89.791L322.768 87.833L319.485 93.022V112.557L311.066 132.092L314.931 137.917L316.889 151.576L316.254 160.682L308.418 170.476H306.46L302.596 172.382L298.677 179.582L294.123 181.541L286.34 183.447L277.87 187.365L273.951 195.201L283.692 206.9L266.168 212.089L265.48 212.725L255.104 216.008L246.633 210.131L245.998 210.766L231.015 211.454L216.72 202.983L213.491 213.413L216.72 222.519L222.544 230.937L221.909 234.22L216.084 234.855L217.407 249.15L227.096 250.474L228.419 255.027L218.678 264.769L223.232 290.181L220.638 297.328L200.468 299.287H199.832L182.891 303.151L176.379 301.245L164.044 273.875L142.548 268.05L137.359 271.969L126.295 266.727L117.824 268.686L108.083 263.496L98.342 264.132L86.6419 268.686L89.2356 274.563L76.211 292.775L69.0635 297.328L71.0219 283.669L61.2281 275.833L41.1101 279.752L26.7625 282.981L24.1687 283.669L13.1043 292.775L11.1459 310.987L7.9169 311.622L6.59373 314.905L4 319.459L4.6353 328.565L20.2536 327.242L22.8473 338.306L26.7659 348.683L16.3892 360.437L20.9431 383.838L18.9847 387.121L24.8091 432.651L30.0508 440.434L23.5385 443.028L27.4029 446.946L24.1738 452.823L35.8736 461.929L44.3443 452.136V482.737L47.5733 488.561L53.4503 484.007L63.1916 485.966L63.8794 493.801L55.4087 498.99L52.1254 508.733L61.284 510.692L62.5546 512.015L69.7022 518.527L66.4731 525.675L65.15 528.904L63.1916 536.051L58.0024 536.739L60.5962 541.928V545.847L51.4901 547.805L44.3426 552.995V565.33L50.2195 570.571L49.5317 582.906L34.6013 597.254V607.631L49.5317 623.249L87.2789 626.532L99.614 623.249L102.262 621.978H106.126L110.045 614.143H113.963L119.152 588.148L125.665 585.5L132.812 575.123L135.406 575.759L149.066 582.271L158.86 574.436L165.372 583.594L175.113 581.636L180.302 573.165L177.073 569.882L171.196 564.693L175.115 560.139L180.939 552.991V542.562L175.75 533.456L166.644 526.996L165.374 543.885L154.945 544.52L149.703 534.779L162.092 528.902L152.986 526.308L141.286 526.944L130.222 521.119L141.286 519.161L138.003 503.541L156.215 500.947L163.415 497.664L168.604 502.27L175.752 497.664L186.816 491.204L192.006 500.946L198.518 502.904L206.353 491.84L216.73 492.475L219.324 506.824L238.859 519.159L242.088 515.93L238.169 497.664L275.281 489.881L275.916 506.136L270.727 512.649L272.633 515.932L271.998 532.821L268.079 536.739L265.485 545.845L280.468 554.951L286.345 551.668V537.373L300.641 530.861L307.153 556.22L317.529 541.29L336.429 528.265L335.741 534.777L346.171 541.925L352.048 558.179L352.683 559.502L346.171 569.243L348.129 572.526L363.747 595.292L366.341 603.71L353.317 627.799L348.127 634.312L344.844 636.27L341.615 639.499L361.15 645.376L367.662 625.206L378.674 620.652L382.593 623.245L377.404 635.635L386.51 640.824L388.468 650.565L387.78 668.777L383.916 679.206L389.741 685.031H402.13L409.277 684.395L407.954 686.354L426.854 685.031L444.378 662.954L437.918 659.036L435.325 656.442L444.431 646.701L453.325 647.336L453.432 646.965L448.878 632.035L447.607 615.729L453.432 610.539L464.496 597.515H467.144L489.91 619.01L500.922 607.946L501.61 595.556L509.393 590.367L530.253 594.921L538.035 597.515L539.994 594.921L562.76 596.88L579.013 589.044L567.949 562.414L572.503 554.579L578.38 553.943L576.421 551.35L566.627 551.985L556.251 548.756L558.209 544.837L564.034 547.431L570.546 540.283L571.869 538.325L586.852 522.707L598.552 515.559L621.318 520.113L623.276 512.965L645.352 511.642L638.893 488.241L631.057 481.729L620.681 492.158H612.21L603.104 469.392L602.416 453.086L605.064 438.156L607.658 433.602L625.235 438.156L626.505 434.872L634.288 435.56L642.123 435.508L657.742 445.302L667.483 436.195V448.531L675.954 443.341L678.547 436.194L690.937 425.129L700.678 428.358L708.461 403.687L711.744 405.592L712.379 399.133L720.85 394.526L722.809 389.337L714.973 384.783L717.567 379.594L730.591 375.676L722.121 361.38L731.915 355.504V347.033L726.673 347.721L726.038 343.167L732.55 340.573L739.062 326.225L750.127 331.414L761.826 323.632L759.233 319.713L762.462 308.649H769.662L770.297 296.949L769.662 283.289L776.121 266.4L766.38 255.336L761.191 262.483L746.843 266.402L735.144 257.296L737.102 232.572L728.631 215.63L715.766 210.495L715.713 210.76L716.984 221.189L713.12 226.378L689.031 216.001L687.072 214.678L667.537 212.084L663.673 201.02L668.227 197.791L659.756 184.766L663.675 177.619L661.081 154.165L662.987 145.059L653.881 144.424L644.139 140.505L643.504 130.129L635.669 125.575L627.886 135.316L618.78 130.127L620.738 124.885L605.755 115.779L601.837 102.119L596.648 106.673L578.436 106.038L575.152 100.213L582.352 87.189L569.328 83.27L567.369 76.758L560.222 65.694L557.628 51.399L551.116 44.251L541.375 44.886L510.138 21.485L501.667 5.867L491.238 7.82501L488.009 11.69L480.174 7.82501L475.62 13.65L467.832 0Z"/>
  </g>
</svg>
