<svg preserveAspectRatio="none" width="100%" height="100%" overflow="visible" style="display: block;" viewBox="0 0 212.008 119.854" fill="none" xmlns="http://www.w3.org/2000/svg">
<g id="Group 3" opacity="0.35">
<path id="Vector" d="M137.81 93.0623L134.109 89.3613V79.5321L134.33 79.3099L134.419 89.2286L137.943 92.7407H149.965V93.0623H137.81Z" fill="white"/>
<path id="Vector_2" d="M13.2957 113.685V0.0665151H12.9741V113.685" fill="white"/>
<path id="Vector_3" d="M20.0986 32.3359C20.0986 31.1834 21.0403 30.2415 22.1924 30.2415C23.3446 30.2415 24.2871 31.1834 24.2871 32.3359C24.2871 33.4883 23.3446 34.4303 22.1924 34.4303C21.0295 34.4303 20.0986 33.4994 20.0986 32.3359ZM20.3199 32.3359C20.3199 33.3664 21.1621 34.2087 22.1924 34.2087C23.2228 34.2087 24.0649 33.3664 24.0649 32.3359C24.0649 31.2942 23.2228 30.4631 22.1924 30.4631C21.1513 30.4631 20.3199 31.3053 20.3199 32.3359Z" fill="white" stroke="white" stroke-width="0.383"/>
<path id="Vector_4" d="M56.0075 63.8624C56.0075 62.7102 56.95 61.7686 58.1022 61.7686C59.2544 61.7686 60.196 62.7102 60.196 63.8624C60.196 65.0154 59.2544 65.957 58.1022 65.957C56.95 65.957 56.0075 65.0154 56.0075 63.8624ZM56.2297 63.8624C56.2297 64.8936 57.0719 65.7357 58.1022 65.7357C59.1325 65.7357 59.9747 64.8936 59.9747 63.8624C59.9747 62.8213 59.1325 61.9899 58.1022 61.9899C57.0719 61.9791 56.2297 62.8213 56.2297 63.8624Z" fill="white" stroke="white" stroke-width="0.383"/>
<path id="Vector_5" d="M23.8545 19.2154C23.8545 18.0629 24.7969 17.121 25.9491 17.121C27.1013 17.121 28.0429 18.0629 28.0429 19.2154C28.0429 20.3678 27.1013 21.3098 25.9491 21.3098C24.7969 21.3098 23.8545 20.3789 23.8545 19.2154ZM24.0766 19.2154C24.0766 20.2459 24.9188 21.0881 25.9491 21.0881C26.9795 21.0881 27.8216 20.2459 27.8216 19.2154C27.8216 18.1737 26.9795 17.3425 25.9491 17.3425C24.9188 17.3425 24.0766 18.1848 24.0766 19.2154Z" fill="white" stroke="white" stroke-width="0.383"/>
<path id="Vector_6" d="M63.6313 63.8624C63.6313 62.7102 64.5729 61.7686 65.7251 61.7686C66.8773 61.7686 67.8189 62.7102 67.8189 63.8624C67.8189 65.0154 66.8773 65.957 65.7251 65.957C64.5613 65.957 63.6313 65.0154 63.6313 63.8624ZM63.8526 63.8624C63.8526 64.8936 64.6948 65.7357 65.7251 65.7357C66.7555 65.7357 67.5976 64.8936 67.5976 63.8624C67.5976 62.8213 66.7555 61.9899 65.7251 61.9899C64.684 61.9791 63.8526 62.8213 63.8526 63.8624Z" fill="white" stroke="white" stroke-width="0.383"/>
<path id="Vector_7" d="M81.2031 19.6253C81.2031 18.4729 82.1447 17.5309 83.2977 17.5309C84.4499 17.5309 85.3915 18.4729 85.3915 19.6253C85.3915 20.7779 84.4499 21.7198 83.2977 21.7198C82.1447 21.7198 81.2031 20.7779 81.2031 19.6253ZM81.4252 19.6253C81.4252 20.6559 82.2666 21.4981 83.2977 21.4981C84.3281 21.4981 85.1694 20.6559 85.1694 19.6253C85.1694 18.5837 84.3281 17.7526 83.2977 17.7526C82.2666 17.7526 81.436 18.5837 81.4252 19.6253Z" fill="white" stroke="white" stroke-width="0.383"/>
<path id="Vector_8" d="M137.444 9.74062C137.444 8.88734 138.142 8.18923 138.995 8.18923C139.848 8.18923 140.546 8.88734 140.546 9.74062C140.546 10.5939 139.848 11.2921 138.995 11.2921C138.142 11.2921 137.444 10.5939 137.444 9.74062ZM137.61 9.74062C137.61 10.5053 138.23 11.1258 138.995 11.1258C139.76 11.1258 140.38 10.5053 140.38 9.74062C140.38 8.97603 139.76 8.35543 138.995 8.35543C138.23 8.3444 137.61 8.96492 137.61 9.74062Z" fill="white" stroke="white" stroke-width="0.383"/>
<path id="Vector_9" d="M189.873 4.00042C189.873 2.84799 190.815 1.90602 191.968 1.90602C193.12 1.90602 194.061 2.84799 194.061 4.00042C194.061 5.15294 193.12 6.09483 191.968 6.09483C190.815 6.09483 189.873 5.15294 189.873 4.00042ZM190.095 4.00042C190.095 5.03101 190.937 5.87326 191.968 5.87326C192.998 5.87326 193.84 5.03101 193.84 4.00042C193.84 2.95882 192.998 2.12768 191.968 2.12768C190.937 2.12768 190.106 2.95882 190.095 4.00042Z" fill="white"/>
<path id="Vector_10" d="M192.034 27.8479C192.034 26.6953 192.975 25.7535 194.128 25.7535C195.28 25.7535 196.222 26.6953 196.222 27.8479C196.222 29.0003 195.28 29.9423 194.128 29.9423C192.965 29.9423 192.034 29.0003 192.034 27.8479ZM192.255 27.8479C192.255 28.8784 193.097 29.7206 194.128 29.7206C195.158 29.7206 196 28.8784 196 27.8479C196 26.8062 195.158 25.9751 194.128 25.9751C193.087 25.9751 192.255 26.8062 192.255 27.8479Z" fill="white"/>
<path id="Vector_11" d="M200.288 115.004C200.288 113.851 201.23 112.91 202.382 112.91C203.535 112.91 204.477 113.851 204.477 115.004C204.477 116.157 203.535 117.098 202.382 117.098C201.219 117.098 200.288 116.157 200.288 115.004ZM200.51 115.004C200.51 116.035 201.352 116.877 202.382 116.877C203.413 116.877 204.255 116.035 204.255 115.004C204.255 113.962 203.413 113.131 202.382 113.131C201.341 113.131 200.51 113.962 200.51 115.004Z" fill="white"/>
<path id="Vector_12" d="M202.382 62.566C202.382 61.4138 203.325 60.4713 204.477 60.4713C205.629 60.4713 206.571 61.4138 206.571 62.566C206.571 63.719 205.629 64.6606 204.477 64.6606C203.325 64.6606 202.382 63.719 202.382 62.566ZM202.604 62.566C202.604 63.5963 203.446 64.4393 204.477 64.4393C205.507 64.4393 206.349 63.5963 206.349 62.566C206.349 61.5249 205.507 60.6935 204.477 60.6935C203.446 60.6819 202.604 61.5249 202.604 62.566Z" fill="white"/>
<path id="Vector_13" d="M18.2151 71.7304V71.4096H21.8714V34.2087H22.1922V71.7304H18.2151Z" fill="white"/>
<path id="Vector_14" d="M17.4062 70.0237L15.4558 68.0741V48.1488L17.9268 45.6894V5.91753L21.3725 2.47126L21.6055 2.69282L18.2368 6.05056V45.8221L15.7774 48.2823V67.9406L17.5388 69.7137H19.423L20.6522 68.4836L20.8744 68.7057L19.5556 70.0237H17.4062Z" fill="white"/>
<path id="Vector_15" d="M200.565 85.9147V73.5366L203.779 70.3345H211.058V70.6553H203.901L200.887 73.6701V85.9147H200.565Z" fill="white"/>
<path id="Vector_16" d="M203.114 83.2332V75.5202L205.474 73.1603H209.352V73.4811H205.607L203.435 75.6536V83.2332H203.114Z" fill="white"/>
<path id="Vector_17" d="M205.518 81.1054V76.795L207.268 75.0552L207.49 75.2765L205.839 76.9277V81.1054H205.518Z" fill="white"/>
<path id="Vector_18" d="M193.231 33.4551L191.38 35.3168V46.5979H191.059V35.1838L192.909 33.3221V30.4298L188.799 26.3186V19.9246L186.206 17.3315L173.918 17.3204V17.0101H186.34L189.121 19.7916V26.1857L193.231 30.2969V33.4551Z" fill="white"/>
<path id="Vector_19" d="M192.588 26.5513L190.682 24.6453V19.2929L188.156 16.7663L188.388 16.5336L191.004 19.1599V24.5123L192.81 26.3296L192.588 26.5513Z" fill="white"/>
<path id="Vector_20" d="M130.12 22.5176H124.868L122.254 19.9024V20.3457L124.736 22.8279H129.988L134.297 27.1387L145.654 15.7801H166.219L169.509 19.0602H177.852V18.7499H169.642L166.351 15.4588H145.532L134.297 26.6953L130.12 22.5176Z" fill="white"/>
<path id="Vector_21" d="M133.655 23.2158L131.306 20.8665H125.545V20.5452H131.439L133.655 22.7614L138.796 17.6196L139.017 17.8523L133.655 23.2158Z" fill="white"/>
<path id="Vector_22" d="M133.754 19.4924L132.901 18.6391H126.819V18.3177H133.034L133.987 19.2707L133.754 19.4924Z" fill="white"/>
<path id="Vector_23" d="M171.769 10.9596H167.138L164.479 8.31116H158.883L154.43 12.766H128.613V12.4446H154.296L158.751 7.9898H164.611L167.27 10.6493H171.769V10.9596Z" fill="white"/>
<path id="Vector_24" d="M162.141 5.05323H157.609L152.59 10.0842H140.214V9.76283H152.457L157.476 4.74296H162.141V5.05323Z" fill="white"/>
<path id="Vector_25" d="M32.6854 3.64051e-05H32.3637V17.7526L54.1466 39.5388V61.8233H54.4674V39.4058L32.6854 17.6196V3.64051e-05Z" fill="white"/>
<path id="Vector_26" d="M36.4852 3.64051e-05H36.1644V17.7526L57.9581 39.5388V61.8233H58.2681V39.4058L36.4852 17.6196V3.64051e-05Z" fill="white"/>
<path id="Vector_27" d="M40.2857 3.64051e-05H39.9757V17.7526L61.7585 39.5388V61.8233H62.0686V39.4058L40.2857 17.6196V3.64051e-05Z" fill="white"/>
<path id="Vector_28" d="M44.0864 3.64051e-05H43.7763V17.7526L65.5584 39.5388V61.8233H65.88V39.4058L44.0864 17.6196V3.64051e-05Z" fill="white"/>
<path id="Vector_29" d="M47.8974 3.64051e-05H47.5758V17.7526L69.3586 39.5388V61.8233H69.6803V39.4058L47.8974 17.6196V3.64051e-05Z" fill="white"/>
<path id="Vector_30" d="M115.495 76.4403H112.038L102.897 67.2982H82.1446L73.5696 58.7207V35.8709L51.4319 13.73V3.64051e-05H51.1103V13.863L73.248 36.0038V58.8541L82.012 67.6082H102.765L111.905 76.7503H115.628L123.406 68.9826L134.109 79.5321L134.33 79.3099L123.406 68.5283L115.495 76.4403Z" fill="white"/>
<path id="Vector_31" d="M83.9842 63.9296L77.2145 57.1582V47.329H77.5246V57.0256L84.1177 63.6187H102.831V63.9296H83.9842Z" fill="white"/>
<path id="Vector_32" d="M84.7269 60.8593L81.0258 57.1582V47.329H81.3474V57.0256L84.8595 60.5385H96.8919V60.8593H84.7269Z" fill="white"/>
<path id="Vector_33" d="M146.851 83.3998V78.4131L142.076 73.6369V64.7933L130.397 53.1247V38.6966L146.153 22.9498L146.374 23.1714L130.719 38.8296V52.9921L142.386 64.6607V73.5034L147.161 78.2796V83.2663L156.014 92.1207L155.792 92.342L146.851 83.3998Z" fill="white"/>
<path id="Vector_34" d="M132.946 51.2854V39.1288L146.43 25.6426L146.662 25.8642L133.267 39.2618V51.1519L148.922 66.81L148.701 67.0322L132.946 51.2854Z" fill="white"/>
<path id="Vector_35" d="M135.727 49.7229V39.5499L144.258 31.0171L144.479 31.2388L136.037 39.6828V49.5895L144.058 57.6124L143.837 57.8346L135.727 49.7229Z" fill="white"/>
<path id="Vector_36" d="M138.608 48.027V40.4696L143.815 35.2614L144.037 35.483L138.929 40.6026V47.8943L143.294 52.2718L143.073 52.4931L138.608 48.027Z" fill="white"/>
<path id="Vector_37" d="M182.549 14.5611L180.035 12.0456L180.256 11.8129L182.683 14.2509H192.034L195.612 10.6605V2.65959H195.934V10.7934L192.166 14.5611H182.549Z" fill="white"/>
<path id="Vector_38" d="M185.331 11.3143V10.9929H190.073L191.823 9.25314V6.00622H192.145V9.37499L190.206 11.3143H185.331Z" fill="white"/>
<path id="Vector_39" d="M44.3523 88.253L51.3657 95.2681H65.7688L78.6658 82.3578L83.7735 87.4664H97.3908L97.5458 87.1448H83.907L78.6658 81.9036L65.6362 94.9465H51.4983L44.3299 87.788" fill="white"/>
<path id="Vector_40" d="M24.6858 92.575H0.13269V92.8966H24.5192" fill="white"/>
<path id="Vector_41" d="M44.3299 81.9036L52.3405 89.3505H66.7444L79.6522 76.451L84.7599 81.5488H100.283L100.438 81.2388H84.8925L79.6522 75.9968L66.611 89.0289H52.4731L44.3299 81.4933" fill="white"/>
<path id="Vector_42" d="M26.1811 89.6157H0V89.9374H26.0037" fill="white"/>
<path id="Vector_43" d="M27.6773 86.6574H0.13269V86.979H27.4891" fill="white"/>
<path id="Vector_44" d="M44.1972 76.2736L51.3656 83.4437H65.7687L78.6657 70.5335L83.7734 75.642H103.163L103.318 75.3212H83.9069L78.6657 70.0792L65.6361 83.1221H51.4983L44.1972 75.831" fill="white"/>
<path id="Vector_45" d="M29.1726 83.7098H0.13269V84.0198H29.0069" fill="white"/>
<path id="Vector_46" d="M75.4081 24.6896L69.3919 18.6835V10.3945L73.7246 6.06159H81.9565L88.0282 3.64051e-05H87.574L81.8346 5.75133H73.5912L69.0711 10.2615V18.8164L75.0873 24.8226V32.3248L82.2118 39.4502L82.4331 39.2174L75.4081 32.1918V24.6896Z" fill="white"/>
<path id="Vector_47" d="M77.9124 31.6931V24.6896L71.6193 18.3842V12.101L74.9325 8.78762H78.9212V9.10899H75.0651L71.9409 12.234V18.2513L78.234 24.5566V31.6931H77.9124Z" fill="white"/>
<path id="Vector_48" d="M92.7266 43.5948L80.8931 31.7596V25.0443H81.2031V31.6266L92.8592 43.2732H99.3744L102.111 40.5362V37.4222L106.875 32.6683H110.542L114.841 28.3687V23.5593L118.497 19.9025L118.72 20.1351L115.163 23.6923V28.5016L110.676 32.9786H106.997L102.432 37.5553V40.6692L99.5071 43.5948H92.7266Z" fill="white"/>
<path id="Vector_49" d="M93.646 40.9796L83.1536 30.4852V21.6422H83.4744V30.3522L93.7786 40.6581H99.4408V40.9796H93.646Z" fill="white"/>
<path id="Vector_50" d="M100.88 34.9732L105.878 29.9755H109.7L112.082 27.593V23.5593L122.852 12.7881L123.074 13.0097L112.404 23.6923V27.7259L109.833 30.2969H106.011L101.103 35.206L100.88 34.9732Z" fill="white"/>
<path id="Vector_51" d="M123.65 3.64051e-05L113.457 10.195V15.6693L107.928 21.21H97.3803L92.1723 15.9907V4.45476H91.8515V16.1236L97.2469 21.5203H108.061L113.778 15.8023V10.328L124.104 3.64051e-05H123.65Z" fill="white"/>
<path id="Vector_52" d="M98.0998 19.4037L93.8343 15.1374V7.14763H94.1559V15.0043L98.2333 19.0823H107.219L111.341 14.9711V9.55229H111.662V15.093L107.352 19.4037H98.0998Z" fill="white"/>
<path id="Vector_53" d="M99.7731 17.1985L97.0361 14.4614V9.35285H97.2466V14.3838L99.8502 16.988H105.612L108.249 14.3617V10.8931H108.448V14.4392L105.701 17.1985H99.7731Z" fill="white"/>
<path id="Vector_54" d="M100.837 15.78L99.0969 14.0402V10.7602H99.2303V13.9849L100.892 15.6471H104.582L106.266 13.9627V11.7464H106.399V14.0181L104.637 15.78H100.837Z" fill="white"/>
<path id="Vector_55" d="M49.8919 64.727L44.7402 69.8803V71.7304L52.1407 79.1334" stroke="white" stroke-width="0.2873"/>
<path id="Vector_56" d="M56.0854 79.5321L47.7649 71.2098L47.9862 70.9877L56.2181 79.2105H64.1515L74.5999 68.7604L74.832 68.9826L64.2734 79.5321H56.0854Z" fill="white"/>
<path id="Vector_57" d="M4.54247 19.2486V2.82578H4.22169V19.3816L8.67541 23.8364V78.1801L5.37387 81.4825H0.13269V81.7925H5.5065L8.99703 78.302V23.7034L4.54247 19.2486Z" fill="white"/>
<path id="Vector_58" d="M6.88082 29.3549V24.9002H6.55921V29.2219L1.89494 33.8873V61.3251L4.78618 64.2288V74.5006L2.58128 76.7063H0.13269V77.0164H2.71473L5.10779 74.6341V64.0953L2.20496 61.1917V34.0202L6.88082 29.3549Z" fill="white"/>
<path id="Vector_59" d="M29.6825 69.6805V53.5458L25.794 49.6566V21.2211H26.1041V49.5231L29.9925 53.4132V69.6805" fill="white"/>
<path id="Vector_60" d="M35.4107 68.9934L31.7097 65.2923V52.3936L28.6079 49.2794V26.5292H28.8624V49.1684L31.965 52.2826V65.1928L35.521 68.7389H42.2575V68.9934H35.4107Z" fill="white"/>
<path id="Vector_61" d="M36.5183 64.7377L33.5608 61.7901V51.4628L31.0782 48.9694V30.7733H31.278V48.8915L33.7714 51.3741V61.7015L36.607 64.5388H41.9925V64.7377H36.5183Z" fill="white"/>
<path id="Vector_62" d="M190.471 98.8357L195.668 93.65V55.6736L193.707 53.7124L193.929 53.4903L195.979 55.5402V93.7719L190.605 99.1573" fill="white"/>
<path id="Vector_63" d="M186.982 92.73L190.771 88.951V61.2696L189.342 59.8397L189.507 59.674L191.004 61.1701V89.0513L187.081 92.9629" fill="white"/>
<path id="Vector_64" d="M185.198 89.6157L188.266 86.5463V64.1285L187.114 62.9647L187.248 62.8321L188.455 64.0514V86.6242L185.275 89.8047" fill="white"/>
<path id="Vector_65" d="M183.757 87.0893L186.239 84.6075V66.4445L185.297 65.5028L185.408 65.4034L186.394 66.3782V84.6738L183.823 87.2451" fill="white"/>
<path id="Vector_66" d="M182.55 84.4525L184.3 82.701V76.9724H184.622V82.8345L182.683 84.7625" fill="white"/>
<path id="Vector_67" d="M169.875 81.5596V63.874L159.049 53.0584L165.697 46.4089V30.1971L163.238 27.737L163.459 27.5154L166.019 30.0752V46.5424L159.503 53.0584L170.185 63.7406V81.5596" fill="white"/>
<path id="Vector_68" d="M168.667 52.9142L171.005 50.5875V39.1953H171.315V50.7201L169.121 52.9142L176.866 60.6603L176.633 60.8817L168.667 52.9142Z" fill="white"/>
<path id="Vector_69" d="M155.482 51.9502L162.296 45.1349V33.311L153.188 24.202L153.41 23.9693L162.617 33.178V45.2684L155.715 52.1831L155.482 51.9502Z" fill="white"/>
<path id="Vector_70" d="M145.421 50.454L141.721 46.7529V41.3891L146.296 36.8127L152.967 30.4298L159.681 37.1452V44.1709L153.398 50.454H145.421ZM142.031 41.5225V46.6311L145.543 50.144H153.266L159.36 44.049V37.2782L152.956 30.873L146.507 37.0455L142.031 41.5225Z" fill="white"/>
<path id="Vector_71" d="M146.884 47.673L144.213 45.0023V41.1238L147.516 37.8212L152.335 33.2113L157.188 38.065V43.1405L152.645 47.6838H146.884V47.673ZM144.436 41.2233V44.9136L146.973 47.4509H152.546L156.945 43.0402V38.1537L152.313 33.5216L147.659 37.9764L144.436 41.2233Z" fill="white"/>
<path id="Vector_72" d="M147.947 45.6671L146.019 43.739V40.9348L148.402 38.5526L151.881 35.217L155.382 38.7187V42.3871L152.102 45.6671H147.947ZM146.174 41.002V43.6611L148.014 45.5005H152.047L155.227 42.3199V38.7853L151.881 35.4387L148.513 38.6634L146.174 41.002Z" fill="white"/>
<path id="Vector_73" d="M102.532 58.4994V44.9244L105.08 42.3755V38.9847L108.714 35.35H113.235L117.312 31.272V25.1883H117.634V31.405L113.368 35.6713H108.836L105.401 39.1177V42.5089L102.853 45.0578V58.3659L110.864 66.3889L110.642 66.6111L102.532 58.4994Z" fill="white"/>
<path id="Vector_74" d="M107.495 57.358V47.1964L124.636 30.042L124.847 30.2525L107.784 47.3182V57.2469L113.811 63.2756L113.612 63.4861L107.495 57.358Z" fill="white"/>
<path id="Vector_75" d="M113.312 57.358V47.1964L130.463 30.042L130.674 30.2525L113.6 47.3182V57.2469L119.639 63.2756L119.428 63.4861L113.312 57.358Z" fill="white"/>
<path id="Vector_76" d="M166.262 81.5596V64.8712L157.543 56.1387L157.764 55.9173L166.584 64.7377V81.5596H166.262Z" fill="white"/>
<path id="Vector_77" d="M162.019 81.5596V64.8712L153.299 56.1387L153.52 55.9173L162.34 64.7377V81.5596H162.019Z" fill="white"/>
<path id="Vector_78" d="M157.775 81.5596V64.8712L149.056 56.1387L149.277 55.9173L158.097 64.7377V81.5596H157.775Z" fill="white"/>
<path id="Vector_79" d="M204.322 60.483V53.6237L207.501 50.4432V39.1177L200.078 31.6821V0.0111429H200.388V31.5601L207.823 38.9847V50.5758L204.632 53.7564V60.483H204.322Z" fill="white"/>
<path id="Vector_80" d="M202.826 30.1971V0.0111429H203.147V30.0752L210.526 37.4555L210.305 37.6771L202.826 30.1971Z" fill="white"/>
<path id="Vector_81" d="M212 119.48C208.078 119.691 205.662 120.545 203.114 116.721" stroke="white" stroke-width="0.2873"/>
<path id="Vector_82" d="M79.8734 45.9C79.8734 45.0462 80.5713 44.3483 81.4251 44.3483C82.278 44.3483 82.976 45.0462 82.976 45.9C82.976 46.7529 82.278 47.4509 81.4251 47.4509C80.5713 47.4509 79.8734 46.7637 79.8734 45.9ZM80.04 45.9C80.04 46.6642 80.66 47.2851 81.4251 47.2851C82.1893 47.2851 82.8094 46.6642 82.8094 45.9C82.8094 45.1349 82.1893 44.5141 81.4251 44.5141C80.66 44.5141 80.04 45.1349 80.04 45.9Z" fill="white" stroke="white" stroke-width="0.383"/>
<path id="Vector_83" d="M41.7042 64.073C41.7042 62.9208 42.6458 61.9792 43.798 61.9792C44.9502 61.9792 45.8927 62.9208 45.8927 64.073C45.8927 65.226 44.9502 66.1676 43.798 66.1676C42.6458 66.1784 41.7042 65.2368 41.7042 64.073ZM41.9255 64.073C41.9255 65.1041 42.7677 65.9463 43.798 65.9463C44.8283 65.9463 45.6705 65.1041 45.6705 64.073C45.6705 63.0319 44.8283 62.2005 43.798 62.2005C42.7677 62.2005 41.9255 63.0426 41.9255 64.073Z" fill="white" stroke="white" stroke-width="0.383"/>
<path id="Vector_84" d="M169.044 37.3114C169.044 36.159 169.985 35.217 171.137 35.217C172.29 35.217 173.232 36.159 173.232 37.3114C173.232 38.4639 172.29 39.4058 171.137 39.4058C169.974 39.4058 169.044 38.4639 169.044 37.3114ZM169.254 37.3114C169.254 38.342 170.096 39.1842 171.127 39.1842C172.157 39.1842 172.999 38.342 172.999 37.3114C172.999 36.2697 172.157 35.4387 171.127 35.4387C170.096 35.4387 169.265 36.2697 169.254 37.3114Z" fill="white" stroke="white" stroke-width="0.383"/>
<path id="Vector_85" d="M149.72 22.9498C149.72 21.7973 150.662 20.8554 151.814 20.8554C152.966 20.8554 153.908 21.7973 153.908 22.9498C153.908 24.1023 152.966 25.0442 151.814 25.0442C150.651 25.0442 149.72 24.1023 149.72 22.9498ZM149.931 22.9498C149.931 23.9804 150.773 24.8226 151.804 24.8226C152.834 24.8226 153.676 23.9804 153.676 22.9498C153.676 21.9081 152.834 21.0771 151.804 21.0771C150.773 21.0771 149.942 21.9081 149.931 22.9498Z" fill="white" stroke="white" stroke-width="0.383"/>
<path id="Vector_86" d="M122.254 11.8351C122.254 10.6826 123.196 9.7407 124.348 9.7407C125.5 9.7407 126.442 10.6826 126.442 11.8351C126.442 12.9875 125.5 13.9295 124.348 13.9295C123.196 13.9295 122.254 12.9875 122.254 11.8351ZM122.475 11.8351C122.475 12.8657 123.318 13.7079 124.348 13.7079C125.378 13.7079 126.22 12.8657 126.22 11.8351C126.22 10.7934 125.378 9.96226 124.348 9.96226C123.318 9.96226 122.475 10.7934 122.475 11.8351Z" fill="white" stroke="white" stroke-width="0.383"/>
<path id="Vector_87" d="M110.398 67.4972C110.398 66.345 111.34 65.4034 112.493 65.4034C113.645 65.4034 114.586 66.345 114.586 67.4972C114.586 68.6502 113.645 69.5918 112.493 69.5918C111.34 69.5918 110.398 68.6502 110.398 67.4972ZM110.62 67.4972C110.62 68.5284 111.462 69.3705 112.493 69.3705C113.523 69.3705 114.365 68.5284 114.365 67.4972C114.365 66.4561 113.523 65.6247 112.493 65.6247C111.462 65.6247 110.631 66.4561 110.62 67.4972Z" fill="white" stroke="white" stroke-width="0.383"/>
<path id="Vector_88" d="M154.861 93.9493C154.861 92.7963 155.803 91.8546 156.955 91.8546C158.107 91.8546 159.049 92.7963 159.049 93.9493C159.049 95.1015 158.107 96.0431 156.955 96.0431C155.792 96.0431 154.861 95.1015 154.861 93.9493ZM155.083 93.9493C155.083 94.9796 155.925 95.8218 156.955 95.8218C157.986 95.8218 158.828 94.9796 158.828 93.9493C158.828 92.9073 157.986 92.0759 156.955 92.0759C155.914 92.0759 155.083 92.9073 155.083 93.9493Z" fill="white"/>
</g>
</svg>
